<svg width="56" height="56" viewBox="0 0 56 56" fill="none" xmlns="http://www.w3.org/2000/svg">
<rect width="56" height="56" rx="28" fill="#FCE8F6"/>
<path d="M35.875 16.3958V18.9374C35.875 20.042 34.9796 20.9374 33.875 20.9374H22.125C21.0204 20.9374 20.125 20.042 20.125 18.9374V16.3958H19.7292C17.52 16.3958 15.7292 18.1866 15.7292 20.3958V39.9999C15.7292 42.2091 17.52 43.9999 19.7292 43.9999H36.2709C38.48 43.9999 40.2709 42.2091 40.2709 39.9999V20.3958C40.2709 18.1866 38.48 16.3958 36.2709 16.3958H35.875ZM28 29.4374C28 28.9197 28.4197 28.4999 28.9375 28.4999H29.75C30.2678 28.4999 30.6875 28.9197 30.6875 29.4374C30.6875 29.9552 30.2678 30.3749 29.75 30.3749H28.9375C28.4197 30.3749 28 29.9552 28 29.4374ZM23.0673 38.318C22.674 38.6958 22.0504 38.6889 21.6656 38.3023L20.6635 37.2953C20.2982 36.9283 20.2996 36.3347 20.6666 35.9695L20.7954 35.8413C21.0913 35.5469 21.5698 35.548 21.8643 35.8439C22.1551 36.1361 22.6264 36.1414 22.9237 35.8557L24.2382 34.5928C24.6116 34.2341 25.205 34.246 25.5638 34.6194C25.9225 34.9927 25.9106 35.5862 25.5372 35.9449L23.0673 38.318ZM23.0673 29.2555C22.674 29.6334 22.0504 29.6264 21.6657 29.2398L20.6635 28.2328C20.2982 27.8658 20.2996 27.2722 20.6666 26.907L20.7954 26.7789C21.0913 26.4844 21.5698 26.4855 21.8643 26.7814C22.1551 27.0736 22.6264 27.0789 22.9237 26.7933L24.2382 25.5304C24.6116 25.1717 25.205 25.1835 25.5637 25.5569C25.9225 25.9303 25.9106 26.5237 25.5372 26.8824L23.0673 29.2555ZM30.6875 38.4999C30.6875 39.0177 30.2678 39.4374 29.75 39.4374H28.9375C28.4197 39.4374 28 39.0177 28 38.4999C28 37.9822 28.4197 37.5624 28.9375 37.5624H29.75C30.2678 37.5624 30.6875 37.9822 30.6875 38.4999ZM35.4611 38.4999C35.4611 39.0177 35.0414 39.4374 34.5236 39.4374H33.7111C33.1934 39.4374 32.7736 39.0177 32.7736 38.4999C32.7736 37.9822 33.1934 37.5624 33.7111 37.5624H34.5236C35.0414 37.5624 35.4611 37.9822 35.4611 38.4999ZM35.4611 34.6249C35.4611 35.1427 35.0414 35.5624 34.5236 35.5624H28.9375C28.4197 35.5624 28 35.1427 28 34.6249C28 34.1072 28.4197 33.6874 28.9375 33.6874H34.5236C35.0413 33.6874 35.4611 34.1072 35.4611 34.6249ZM35.4611 29.4374C35.4611 29.9552 35.0414 30.3749 34.5236 30.3749H33.7111C33.1934 30.3749 32.7736 29.9552 32.7736 29.4374C32.7736 28.9197 33.1934 28.4999 33.7111 28.4999H34.5236C35.0414 28.4999 35.4611 28.9197 35.4611 29.4374ZM35.4611 25.5625C35.4611 26.0803 35.0414 26.5 34.5236 26.5H28.9375C28.4197 26.5 28 26.0803 28 25.5625C28 25.0447 28.4197 24.625 28.9375 24.625H34.5236C35.0413 24.625 35.4611 25.0447 35.4611 25.5625Z" fill="url(#paint0_linear_662_4902)"/>
<path d="M34 15.3958C34 14.8435 33.5523 14.3958 33 14.3958C32.4477 14.3958 32.019 13.9291 31.7949 13.4244C31.4222 12.5852 30.5815 12 29.6042 12H26.3959C25.4185 12 24.5778 12.5852 24.2051 13.4244C23.981 13.9291 23.5523 14.3958 23 14.3958C22.4477 14.3958 22 14.8435 22 15.3958V18.0625C22 18.6148 22.4477 19.0625 23 19.0625H33C33.5523 19.0625 34 18.6148 34 18.0625V15.3958Z" fill="url(#paint1_linear_662_4902)"/>
<defs>
<linearGradient id="paint0_linear_662_4902" x1="28" y1="16.3958" x2="28" y2="43.9999" gradientUnits="userSpaceOnUse">
<stop stop-color="#F04BBA"/>
<stop offset="0.510417" stop-color="#E119A0"/>
<stop offset="1" stop-color="#BB1084"/>
</linearGradient>
<linearGradient id="paint1_linear_662_4902" x1="28" y1="12" x2="28" y2="19.0625" gradientUnits="userSpaceOnUse">
<stop stop-color="#F04BBA"/>
<stop offset="0.510417" stop-color="#E119A0"/>
<stop offset="1" stop-color="#BB1084"/>
</linearGradient>
</defs>
</svg>
