<svg width="16" height="42" viewBox="0 0 16 42" fill="none" xmlns="http://www.w3.org/2000/svg">
<path d="M7.64645 41.2881C7.84171 41.4834 8.15829 41.4834 8.35355 41.2881L11.5355 38.1061C11.7308 37.9109 11.7308 37.5943 11.5355 37.399C11.3403 37.2038 11.0237 37.2038 10.8284 37.399L8 40.2275L5.17157 37.399C4.97631 37.2038 4.65973 37.2038 4.46447 37.399C4.2692 37.5943 4.2692 37.9109 4.46447 38.1061L7.64645 41.2881ZM7.5 0.93457V4.2679H8.5V0.93457H7.5ZM7.5 10.9346V17.6012H8.5L8.5 10.9346H7.5ZM7.5 24.2679L7.5 30.9346H8.5V24.2679H7.5ZM7.5 37.6012L7.5 40.9346H8.5V37.6012H7.5ZM7.29289 41.6417C7.68342 42.0322 8.31658 42.0322 8.70711 41.6417L15.0711 35.2777C15.4616 34.8872 15.4616 34.254 15.0711 33.8635C14.6805 33.473 14.0474 33.473 13.6569 33.8635L8 39.5204L2.34315 33.8635C1.95262 33.473 1.31946 33.473 0.928932 33.8635C0.538408 34.254 0.538408 34.8872 0.928932 35.2777L7.29289 41.6417ZM7 0.93457V4.2679H9V0.93457L7 0.93457ZM7 10.9346L7 17.6012H9L9 10.9346H7ZM7 24.2679L7 30.9346H9V24.2679H7ZM7 37.6012L7 40.9346H9V37.6012H7Z" fill="#C599E5"/>
</svg>
