<svg width="56" height="56" viewBox="0 0 56 56" fill="none" xmlns="http://www.w3.org/2000/svg">
<rect x="0.00012207" width="55.9997" height="56" rx="27.9999" fill="#E5F7FF"/>
<path d="M22.066 26.6665C22.5443 26.3904 22.7082 25.7788 22.432 25.3005L20.3538 21.7009C20.2244 21.4767 19.9376 21.3998 19.7134 21.5293C19.1712 21.8422 18.5397 21.9254 17.9348 21.7634C17.3301 21.6014 16.8247 21.2136 16.5116 20.6714C16.1986 20.1292 16.1154 19.4976 16.2775 18.8928C16.4395 18.2881 16.8273 17.7826 17.3695 17.4695C18.489 16.8235 19.9252 17.2082 20.5714 18.3275L24.0871 24.4169C24.346 24.8654 24.9194 25.019 25.3678 24.7601C25.8162 24.5012 25.9699 23.9278 25.711 23.4794L22.1952 17.3899C21.8821 16.8477 21.799 16.2161 21.9611 15.6113C22.1231 15.0066 22.5109 14.5012 23.0531 14.1881C24.1725 13.5419 25.6088 13.9268 26.2549 15.046C26.9011 16.1652 26.5162 17.6015 25.3969 18.2478C25.1727 18.3772 25.0959 18.6639 25.2254 18.8881L27.3036 22.4877C27.5798 22.966 28.1913 23.1299 28.6696 22.8537L34.1909 19.666C35.1475 19.1137 35.4752 17.8906 34.923 16.934L34.1103 15.5265C33.5581 14.5699 32.3349 14.2422 31.3783 14.7945L30.0569 15.5574C29.3641 15.9574 28.4414 15.4011 28.1453 14.658C28.0709 14.4712 27.9822 14.2876 27.8787 14.1085C26.7155 12.0939 24.1301 11.4013 22.1156 12.5644C21.1396 13.1279 20.4415 14.0376 20.1498 15.1261C20.0901 15.3493 19.8538 15.4861 19.6306 15.4264C18.5876 15.1473 17.4387 15.2646 16.4321 15.8458C15.4561 16.4092 14.7581 17.319 14.4664 18.4075C14.1747 19.4961 14.3244 20.633 14.8879 21.6089C14.9905 21.7867 15.1047 21.9553 15.2293 22.1138C15.7237 22.7428 15.7433 23.8215 15.0504 24.2215L13.7322 24.9827C12.7756 25.5349 12.4478 26.7581 13.0001 27.7147L13.8127 29.1222C14.365 30.0788 15.5882 30.4065 16.5448 29.8542L22.066 26.6665Z" fill="url(#paint0_linear_662_4918)"/>
<path d="M32.305 28.9368C32.305 28.3845 32.7527 27.9368 33.305 27.9368H37.8054C38.91 27.9368 39.8054 28.8322 39.8054 29.9368V42C39.8054 43.1046 38.91 44 37.8054 44H33.305C32.7527 44 32.305 43.5523 32.305 43V28.9368Z" fill="url(#paint1_linear_662_4918)"/>
<path d="M28.5548 28.8743C28.5548 28.3566 28.9746 27.9368 29.4924 27.9368C30.0102 27.9368 30.4299 28.3566 30.4299 28.8743V43.0625C30.4299 43.5803 30.0102 44 29.4924 44C28.9746 44 28.5548 43.5802 28.5548 43.0625V28.8743Z" fill="url(#paint2_linear_662_4918)"/>
<path d="M26.6798 28.9368C26.6798 28.3845 26.232 27.9368 25.6798 27.9368H23.884C23.7085 27.9368 23.536 27.983 23.384 28.0708L19.6796 30.2096C19.3702 30.3882 19.1796 30.7183 19.1796 31.0756V42C19.1796 43.1046 20.075 44 21.1796 44H25.6798C26.232 44 26.6798 43.5523 26.6798 43V28.9368Z" fill="url(#paint3_linear_662_4918)"/>
<path d="M40.2497 21.374C40.2497 20.8562 40.6695 20.4365 41.1873 20.4365C41.705 20.4365 42.1248 20.8562 42.1248 21.374V22.3116H40.2497V21.374Z" fill="url(#paint4_linear_662_4918)"/>
<path d="M38.3746 17.6239C38.3746 17.1061 38.7944 16.6863 39.3122 16.6863C39.83 16.6863 40.2497 17.1061 40.2497 17.6239C40.2497 18.1417 39.83 18.5614 39.3122 18.5614C38.7944 18.5614 38.3746 18.1417 38.3746 17.6239Z" fill="url(#paint5_linear_662_4918)"/>
<path d="M42.1248 22.3116L43.0623 22.3116C43.5801 22.3116 43.9999 22.7313 43.9999 23.2491C43.9999 23.7669 43.5801 24.1866 43.0623 24.1866H42.1248L42.1248 22.3116Z" fill="url(#paint6_linear_662_4918)"/>
<path d="M38.3746 23.2491C38.3746 22.7313 38.7944 22.3116 39.3122 22.3116L40.2497 22.3116L40.2497 24.1866H39.3122C38.7944 24.1866 38.3746 23.7669 38.3746 23.2491Z" fill="url(#paint7_linear_662_4918)"/>
<path d="M34.6245 25.1242C34.6245 24.6064 35.0442 24.1866 35.562 24.1866C36.0798 24.1866 36.4996 24.6064 36.4996 25.1242C36.4996 25.642 36.0798 26.0617 35.562 26.0617C35.0442 26.0617 34.6245 25.642 34.6245 25.1242Z" fill="url(#paint8_linear_662_4918)"/>
<path d="M40.2497 24.1866H42.1248L42.1248 25.1242C42.1248 25.642 41.705 26.0617 41.1873 26.0617C40.6695 26.0617 40.2497 25.642 40.2497 25.1242V24.1866Z" fill="url(#paint9_linear_662_4918)"/>
<defs>
<linearGradient id="paint0_linear_662_4918" x1="28" y1="12" x2="28" y2="44" gradientUnits="userSpaceOnUse">
<stop stop-color="#99DFFF"/>
<stop offset="0.463542" stop-color="#00AEFF"/>
<stop offset="1" stop-color="#1088C0"/>
</linearGradient>
<linearGradient id="paint1_linear_662_4918" x1="28" y1="12" x2="28" y2="44" gradientUnits="userSpaceOnUse">
<stop stop-color="#99DFFF"/>
<stop offset="0.463542" stop-color="#00AEFF"/>
<stop offset="1" stop-color="#1088C0"/>
</linearGradient>
<linearGradient id="paint2_linear_662_4918" x1="28" y1="12" x2="28" y2="44" gradientUnits="userSpaceOnUse">
<stop stop-color="#99DFFF"/>
<stop offset="0.463542" stop-color="#00AEFF"/>
<stop offset="1" stop-color="#1088C0"/>
</linearGradient>
<linearGradient id="paint3_linear_662_4918" x1="28" y1="12" x2="28" y2="44" gradientUnits="userSpaceOnUse">
<stop stop-color="#99DFFF"/>
<stop offset="0.463542" stop-color="#00AEFF"/>
<stop offset="1" stop-color="#1088C0"/>
</linearGradient>
<linearGradient id="paint4_linear_662_4918" x1="28" y1="12" x2="28" y2="44" gradientUnits="userSpaceOnUse">
<stop stop-color="#99DFFF"/>
<stop offset="0.463542" stop-color="#00AEFF"/>
<stop offset="1" stop-color="#1088C0"/>
</linearGradient>
<linearGradient id="paint5_linear_662_4918" x1="28" y1="12" x2="28" y2="44" gradientUnits="userSpaceOnUse">
<stop stop-color="#99DFFF"/>
<stop offset="0.463542" stop-color="#00AEFF"/>
<stop offset="1" stop-color="#1088C0"/>
</linearGradient>
<linearGradient id="paint6_linear_662_4918" x1="28" y1="12" x2="28" y2="44" gradientUnits="userSpaceOnUse">
<stop stop-color="#99DFFF"/>
<stop offset="0.463542" stop-color="#00AEFF"/>
<stop offset="1" stop-color="#1088C0"/>
</linearGradient>
<linearGradient id="paint7_linear_662_4918" x1="28" y1="12" x2="28" y2="44" gradientUnits="userSpaceOnUse">
<stop stop-color="#99DFFF"/>
<stop offset="0.463542" stop-color="#00AEFF"/>
<stop offset="1" stop-color="#1088C0"/>
</linearGradient>
<linearGradient id="paint8_linear_662_4918" x1="28" y1="12" x2="28" y2="44" gradientUnits="userSpaceOnUse">
<stop stop-color="#99DFFF"/>
<stop offset="0.463542" stop-color="#00AEFF"/>
<stop offset="1" stop-color="#1088C0"/>
</linearGradient>
<linearGradient id="paint9_linear_662_4918" x1="28" y1="12" x2="28" y2="44" gradientUnits="userSpaceOnUse">
<stop stop-color="#99DFFF"/>
<stop offset="0.463542" stop-color="#00AEFF"/>
<stop offset="1" stop-color="#1088C0"/>
</linearGradient>
</defs>
</svg>
