<svg width="244" height="151" viewBox="0 0 244 151" fill="none" xmlns="http://www.w3.org/2000/svg">
<g filter="url(#filter0_dd_6924_2112)">
<g clip-path="url(#clip0_6924_2112)">
<rect x="5.57581" y="34.2822" width="77.3851" height="83.3378" rx="9.67742" fill="url(#paint0_linear_6924_2112)"/>
<rect x="3.6676" y="34.1475" width="82" height="83" rx="41" fill="#6E00BE" fill-opacity="0.02"/>
<g filter="url(#filter1_dd_6924_2112)">
<rect x="12.9313" y="42.167" width="62.7195" height="69.5044" rx="4.09449" fill="white"/>
<rect x="13.136" y="42.3717" width="62.31" height="69.095" rx="3.88976" stroke="#D2D1D6" stroke-width="0.409449"/>
</g>
<rect x="21.0425" y="90.8743" width="48.6617" height="2.73639" fill="#F4F4F5"/>
<rect x="21.0425" y="96.3469" width="48.6617" height="2.73639" fill="#F4F4F5"/>
<rect x="21.0425" y="102.915" width="48.6617" height="2.73639" fill="#F4F4F5"/>
<ellipse cx="18.3905" cy="97.9666" rx="1.45353" ry="1.47125" fill="#F4F4F5"/>
<ellipse cx="18.3905" cy="91.9041" rx="1.45353" ry="1.47125" fill="#F4F4F5"/>
<ellipse cx="18.3905" cy="104.404" rx="1.45353" ry="1.47125" fill="#F4F4F5"/>
<rect x="21.0426" y="72.8135" width="49.2023" height="2.73639" fill="#F4F4F5"/>
<rect x="21.0426" y="78.2881" width="49.2023" height="2.73639" fill="#F4F4F5"/>
<rect x="21.0426" y="84.8545" width="49.2023" height="2.73639" fill="#F4F4F5"/>
<ellipse cx="18.3907" cy="79.9058" rx="1.45353" ry="1.47125" fill="#F4F4F5"/>
<ellipse cx="18.3907" cy="73.8433" rx="1.45353" ry="1.47125" fill="#F4F4F5"/>
<ellipse cx="18.3907" cy="86.3433" rx="1.45353" ry="1.47125" fill="#F4F4F5"/>
<path d="M27.2582 56.3969C29.1919 56.3969 30.7727 54.7968 30.7727 52.8395C30.7727 50.8822 29.1919 49.2822 27.2582 49.2822C25.3245 49.2822 23.7438 50.8822 23.7438 52.8395C23.7438 54.7968 25.3245 56.3969 27.2582 56.3969Z" fill="#EFE5F6"/>
<path d="M35.0659 60.6231C34.9467 60.3411 34.7879 60.078 34.6091 59.8336C33.6955 58.5554 32.2855 57.7096 30.6966 57.5028C30.498 57.484 30.2796 57.5216 30.1207 57.6344C29.2865 58.2171 28.2935 58.5178 27.2607 58.5178C26.2279 58.5178 25.2349 58.2171 24.4008 57.6344C24.2419 57.5216 24.0234 57.4652 23.8248 57.5028C22.236 57.7096 20.806 58.5554 19.9123 59.8336C19.7336 60.078 19.5747 60.36 19.4555 60.6231C19.396 60.7359 19.4158 60.8675 19.4754 60.9803C19.6343 61.2434 19.8329 61.5066 20.0116 61.7321C20.2896 62.0893 20.5876 62.4088 20.9252 62.7095C21.2032 62.9727 21.521 63.2171 21.8388 63.4614C23.4078 64.5704 25.2945 65.1531 27.2409 65.1531C29.1872 65.1531 31.074 64.5704 32.643 63.4614C32.9607 63.2359 33.2785 62.9727 33.5565 62.7095C33.8743 62.4088 34.1921 62.0892 34.4701 61.7321C34.6687 61.4878 34.8475 61.2434 35.0064 60.9803C35.1056 60.8675 35.1255 60.7359 35.0659 60.6231Z" fill="#EFE5F6"/>
</g>
<rect x="5.97903" y="34.6855" width="76.5787" height="82.5314" rx="9.27419" stroke="#F4F4F5" stroke-width="0.806452"/>
</g>
<g filter="url(#filter2_dd_6924_2112)">
<g clip-path="url(#clip1_6924_2112)">
<rect x="161.039" y="33.7412" width="77.3851" height="83.3378" rx="9.67742" fill="url(#paint1_linear_6924_2112)"/>
<rect x="158.668" y="33.1494" width="83" height="83" rx="41.5" fill="#6E00BE" fill-opacity="0.02"/>
<g filter="url(#filter3_dd_6924_2112)">
<rect x="168.262" y="41.04" width="63.4843" height="69.5044" rx="4.09449" fill="white"/>
<rect x="168.466" y="41.2448" width="63.0749" height="69.095" rx="3.88976" stroke="#D2D1D6" stroke-width="0.409449"/>
</g>
<rect x="176.471" y="89.7473" width="49.2551" height="2.73639" fill="#F4F4F5"/>
<rect x="176.471" y="95.22" width="49.2551" height="2.73639" fill="#F4F4F5"/>
<rect x="176.471" y="101.788" width="49.2551" height="2.73639" fill="#F4F4F5"/>
<circle cx="173.788" cy="96.8397" r="1.47125" fill="#F4F4F5"/>
<circle cx="173.788" cy="90.7772" r="1.47125" fill="#F4F4F5"/>
<circle cx="173.788" cy="103.277" r="1.47125" fill="#F4F4F5"/>
<rect x="176.471" y="71.6865" width="49.8024" height="2.73639" fill="#F4F4F5"/>
<rect x="176.471" y="77.1592" width="49.8024" height="2.73639" fill="#F4F4F5"/>
<rect x="176.47" y="83.7273" width="49.8024" height="2.73639" fill="#F4F4F5"/>
<circle cx="173.788" cy="78.7789" r="1.47125" fill="#F4F4F5"/>
<circle cx="173.788" cy="72.7164" r="1.47125" fill="#F4F4F5"/>
<circle cx="173.788" cy="85.2164" r="1.47125" fill="#F4F4F5"/>
<path d="M182.764 55.2699C184.722 55.2699 186.322 53.6699 186.322 51.7126C186.322 49.7553 184.722 48.1553 182.764 48.1553C180.807 48.1553 179.207 49.7553 179.207 51.7126C179.207 53.6699 180.807 55.2699 182.764 55.2699Z" fill="#EFE5F6"/>
<path d="M190.667 59.4961C190.546 59.2142 190.386 58.951 190.205 58.7067C189.28 57.4285 187.853 56.5826 186.245 56.3759C186.044 56.3571 185.822 56.3946 185.662 56.5074C184.817 57.0901 183.812 57.3909 182.767 57.3909C181.721 57.3909 180.716 57.0901 179.872 56.5074C179.711 56.3946 179.49 56.3383 179.289 56.3759C177.681 56.5826 176.233 57.4285 175.329 58.7067C175.148 58.951 174.987 59.233 174.866 59.4961C174.806 59.6089 174.826 59.7405 174.886 59.8533C175.047 60.1164 175.248 60.3796 175.429 60.6052C175.711 60.9623 176.012 61.2819 176.354 61.5826C176.635 61.8457 176.957 62.0901 177.279 62.3345C178.867 63.4435 180.777 64.0262 182.747 64.0262C184.717 64.0262 186.627 63.4435 188.215 62.3345C188.536 62.1089 188.858 61.8457 189.139 61.5826C189.461 61.2819 189.783 60.9623 190.064 60.6052C190.265 60.3608 190.446 60.1164 190.607 59.8533C190.707 59.7405 190.727 59.6089 190.667 59.4961Z" fill="#EFE5F6"/>
</g>
<rect x="161.442" y="34.1444" width="76.5787" height="82.5314" rx="9.27419" stroke="#F4F4F5" stroke-width="0.806452"/>
</g>
<g opacity="0.4">
<path d="M179.492 106.309C179.492 106.191 179.466 106.087 179.426 105.997C179.36 105.817 179.234 105.665 179.021 105.582C178.206 105.27 177.291 105.423 176.469 105.651C176.243 105.713 176.111 105.866 176.044 106.039C175.998 106.129 175.971 106.233 175.971 106.364C176.018 111.032 176.237 115.657 176.455 120.311C176.482 120.837 176.953 121.052 177.331 120.955C177.662 121.01 177.98 121.024 178.312 120.997C178.478 121.017 178.644 120.976 178.77 120.865C178.789 120.851 178.803 120.823 178.816 120.81C178.842 120.782 178.869 120.754 178.889 120.72C178.988 120.567 179.307 115.699 179.333 113.587C179.36 111.149 179.486 108.733 179.492 106.309Z" fill="#FFA000"/>
<path d="M171.124 111.364C171.012 111.364 170.912 111.392 170.826 111.433C170.654 111.503 170.508 111.634 170.428 111.856C170.13 112.707 170.276 113.663 170.495 114.522C170.554 114.757 170.7 114.896 170.866 114.965C170.952 115.013 171.052 115.041 171.178 115.041C175.647 114.993 180.076 114.536 184.532 114.536C185.248 114.536 185.149 113.622 185.149 113.622L185.188 111.96C185.188 111.96 185.168 111.613 185.062 111.482C185.049 111.461 185.023 111.447 185.009 111.433C184.983 111.406 184.956 111.378 184.923 111.357C184.777 111.253 180.116 111.558 178.093 111.53C175.766 111.509 173.445 111.378 171.124 111.364Z" fill="#FFA000"/>
<path d="M186.103 142.692C186.216 142.692 186.316 142.664 186.402 142.623C186.574 142.553 186.72 142.422 186.8 142.2C187.098 141.349 186.952 140.393 186.733 139.534C186.674 139.299 186.528 139.16 186.362 139.091C186.276 139.043 186.176 139.015 186.05 139.015C181.581 139.063 177.145 139.292 172.696 139.52C172.192 139.548 171.986 140.04 172.079 140.434C172.026 140.781 172.013 141.113 172.04 141.459C172.02 141.632 172.059 141.806 172.165 141.937C172.179 141.958 172.205 141.972 172.219 141.986C172.245 142.013 172.272 142.041 172.305 142.055C172.451 142.159 177.112 142.491 179.134 142.519C181.462 142.553 183.783 142.678 186.103 142.692Z" fill="#FFA000"/>
<path d="M181.256 133.953C181.256 133.835 181.23 133.731 181.19 133.641C181.124 133.461 180.998 133.309 180.785 133.226C179.97 132.914 179.055 133.066 178.233 133.295C178.007 133.357 177.875 133.51 177.808 133.683C177.762 133.773 177.735 133.877 177.735 134.008C177.782 138.675 178.219 143.301 178.219 147.955C178.219 148.703 179.095 148.599 179.095 148.599L180.686 148.64C180.686 148.64 181.018 148.62 181.144 148.509C181.163 148.495 181.177 148.467 181.19 148.453C181.216 148.426 181.243 148.398 181.256 148.363C181.356 148.211 181.064 143.343 181.091 141.231C181.124 138.8 181.243 136.376 181.256 133.953Z" fill="#FFA000"/>
<path d="M158.751 135.795C158.751 135.677 158.725 135.573 158.685 135.483C158.619 135.303 158.493 135.151 158.28 135.068C157.465 134.756 156.55 134.908 155.728 135.137C155.502 135.199 155.37 135.352 155.303 135.525C155.257 135.615 155.23 135.719 155.23 135.85C155.277 140.518 155.496 145.143 155.714 149.797C155.741 150.323 156.212 150.538 156.59 150.441C156.921 150.496 157.239 150.51 157.571 150.482C157.737 150.503 157.903 150.462 158.029 150.351C158.048 150.337 158.062 150.309 158.075 150.295C158.101 150.268 158.128 150.24 158.141 150.205C158.241 150.053 158.559 145.185 158.586 143.073C158.619 140.635 158.745 138.218 158.751 135.795Z" fill="#FFA000"/>
<path d="M150.383 140.85C150.271 140.85 150.171 140.878 150.085 140.919C149.913 140.988 149.767 141.12 149.687 141.341C149.389 142.193 149.535 143.149 149.754 144.008C149.813 144.243 149.959 144.381 150.125 144.451C150.211 144.499 150.311 144.527 150.437 144.527C154.906 144.478 159.335 144.021 163.791 144.021C164.507 144.021 164.408 143.107 164.408 143.107L164.447 141.445C164.447 141.445 164.427 141.099 164.321 140.968C164.308 140.947 164.282 140.933 164.268 140.919C164.242 140.891 164.215 140.864 164.182 140.85C164.036 140.746 159.375 141.051 157.352 141.023C155.025 140.995 152.704 140.864 150.383 140.85Z" fill="#FFA000"/>
<path d="M192.111 119.667C192.111 119.549 192.084 119.445 192.044 119.355C191.978 119.175 191.852 119.023 191.64 118.94C190.824 118.628 189.909 118.78 189.087 119.009C188.862 119.071 188.729 119.217 188.663 119.397C188.616 119.487 188.59 119.591 188.59 119.722C188.636 124.39 188.855 129.015 189.074 133.669C189.1 134.195 189.571 134.41 189.949 134.313C190.281 134.368 190.599 134.382 190.93 134.354C191.096 134.375 191.262 134.334 191.388 134.223C191.408 134.209 191.421 134.181 191.434 134.167C191.461 134.14 191.487 134.112 191.501 134.077C191.6 133.925 191.918 129.057 191.945 126.945C191.978 124.507 192.097 122.091 192.111 119.667Z" fill="#FFA000"/>
<path d="M196.945 128.385C197.057 128.385 197.157 128.357 197.243 128.316C197.415 128.247 197.561 128.115 197.641 127.893C197.939 127.042 197.793 126.086 197.575 125.227C197.515 124.992 197.369 124.853 197.203 124.784C197.117 124.736 197.018 124.708 196.892 124.708C192.423 124.756 187.993 125.214 183.537 125.214C182.821 125.214 182.921 126.128 182.921 126.128L182.881 127.79C182.881 127.79 182.901 128.136 183.007 128.267C183.02 128.288 183.047 128.302 183.06 128.316C183.086 128.344 183.113 128.371 183.146 128.385C183.292 128.489 187.953 128.184 189.976 128.212C192.303 128.247 194.624 128.371 196.945 128.385Z" fill="#FFA000"/>
<path d="M164.062 132.817C164.062 132.935 164.089 133.039 164.129 133.129C164.195 133.309 164.321 133.461 164.533 133.544C165.349 133.856 166.264 133.704 167.086 133.475C167.312 133.413 167.444 133.26 167.51 133.087C167.557 132.997 167.583 132.893 167.583 132.762C167.537 128.094 167.318 123.462 167.099 118.815C167.073 118.289 166.602 118.074 166.224 118.171C165.893 118.116 165.574 118.102 165.243 118.13C165.077 118.109 164.911 118.15 164.785 118.261C164.765 118.275 164.752 118.303 164.739 118.317C164.712 118.344 164.686 118.372 164.673 118.407C164.573 118.559 164.255 123.427 164.228 125.539C164.195 127.977 164.076 130.393 164.062 132.817Z" fill="#FFA000"/>
<path d="M172.239 128.33C172.351 128.344 172.451 128.323 172.544 128.288C172.716 128.233 172.875 128.115 172.975 127.9C173.346 127.076 173.28 126.114 173.134 125.241C173.094 124.999 172.961 124.847 172.802 124.764C172.716 124.708 172.623 124.667 172.497 124.66C168.041 124.306 163.592 124.355 159.15 123.946C158.433 123.884 158.453 124.798 158.453 124.798L158.274 126.446C158.274 126.446 158.268 126.793 158.36 126.931C158.374 126.952 158.394 126.966 158.414 126.986C158.44 127.014 158.46 127.042 158.493 127.069C158.626 127.187 163.3 127.305 165.316 127.52C167.63 127.769 169.931 128.108 172.239 128.33Z" fill="#FFA000"/>
<path d="M141.545 135.234C141.545 135.352 141.571 135.455 141.611 135.546C141.678 135.726 141.804 135.878 142.016 135.961C142.831 136.273 143.746 136.12 144.569 135.892C144.794 135.829 144.927 135.677 144.993 135.504C145.039 135.414 145.066 135.31 145.066 135.178C145.019 130.511 144.801 125.885 144.582 121.232C144.555 120.706 144.084 120.491 143.707 120.588C143.375 120.532 143.057 120.519 142.725 120.546C142.559 120.526 142.394 120.567 142.268 120.678C142.248 120.692 142.235 120.719 142.221 120.733C142.195 120.761 142.168 120.789 142.155 120.823C142.055 120.976 141.737 125.844 141.711 127.956C141.678 130.387 141.558 132.81 141.545 135.234Z" fill="#FFA000"/>
<path d="M149.72 130.747C149.833 130.76 149.933 130.74 150.025 130.705C150.198 130.65 150.357 130.532 150.456 130.317C150.828 129.493 150.761 128.531 150.616 127.658C150.576 127.416 150.443 127.263 150.284 127.18C150.198 127.125 150.105 127.083 149.979 127.076C145.523 126.723 141.074 126.772 136.631 126.363C135.915 126.301 135.935 127.215 135.935 127.215L135.756 128.863C135.756 128.863 135.749 129.209 135.842 129.348C135.856 129.369 135.875 129.382 135.895 129.403C135.922 129.431 135.942 129.459 135.975 129.486C136.108 129.604 140.782 129.722 142.798 129.936C145.112 130.186 147.413 130.525 149.72 130.747Z" fill="#FFA000"/>
<path d="M159.222 113.123C159.335 113.123 159.434 113.095 159.521 113.054C159.693 112.984 159.839 112.853 159.918 112.631C160.217 111.779 160.071 110.824 159.852 109.972C159.792 109.737 159.647 109.598 159.481 109.529C159.395 109.48 159.295 109.453 159.169 109.453C154.7 109.501 150.271 109.73 145.815 109.958C145.311 109.986 145.105 110.478 145.198 110.872C145.145 111.218 145.132 111.551 145.158 111.897C145.139 112.07 145.178 112.243 145.284 112.375C145.298 112.396 145.324 112.41 145.337 112.423C145.364 112.451 145.39 112.479 145.424 112.493C145.57 112.597 150.231 112.929 152.253 112.957C154.587 112.984 156.901 113.109 159.222 113.123Z" fill="#FFA000"/>
<path d="M154.925 104.585C154.939 104.467 154.919 104.363 154.886 104.266C154.832 104.086 154.72 103.92 154.514 103.816C153.725 103.428 152.803 103.497 151.968 103.65C151.736 103.691 151.59 103.83 151.51 103.996C151.457 104.086 151.418 104.183 151.411 104.314C151.073 108.968 151.119 113.615 150.728 118.254C150.668 119.002 151.544 118.981 151.544 118.981L153.122 119.168C153.122 119.168 153.453 119.175 153.586 119.078C153.606 119.064 153.619 119.044 153.639 119.023C153.665 118.995 153.692 118.974 153.719 118.94C153.831 118.801 153.944 113.919 154.149 111.814C154.388 109.397 154.713 106.994 154.925 104.585Z" fill="#FFA000"/>
</g>
<g filter="url(#filter4_dd_6924_2112)">
<g clip-path="url(#clip2_6924_2112)">
<rect x="73.3501" y="24.3467" width="95.9576" height="103.339" rx="12" fill="url(#paint2_linear_6924_2112)"/>
<g filter="url(#filter5_dd_6924_2112)">
<rect x="79.3894" y="28.7256" width="84.55" height="92.5677" rx="5.43103" fill="white"/>
<rect x="79.661" y="28.9971" width="84.0069" height="92.0246" rx="5.15948" stroke="#D2D1D6" stroke-width="0.543103"/>
</g>
<rect x="90.323" y="93.5947" width="65.5992" height="3.6444" fill="#F4F4F5"/>
<rect x="90.323" y="100.884" width="65.5992" height="3.6444" fill="#F4F4F5"/>
<rect x="90.323" y="109.632" width="65.5992" height="3.6444" fill="#F4F4F5"/>
<circle cx="86.7492" cy="103.042" r="1.95945" fill="#F4F4F5"/>
<circle cx="86.7492" cy="94.9663" r="1.95945" fill="#F4F4F5"/>
<circle cx="86.7492" cy="111.613" r="1.95945" fill="#F4F4F5"/>
<rect x="90.323" y="69.542" width="66.328" height="3.6444" fill="#F4F4F5"/>
<rect x="90.323" y="76.8311" width="66.328" height="3.6444" fill="#F4F4F5"/>
<rect x="90.323" y="85.5791" width="66.328" height="3.6444" fill="#F4F4F5"/>
<circle cx="86.7492" cy="78.9897" r="1.95945" fill="#F4F4F5"/>
<circle cx="86.7492" cy="70.9136" r="1.95945" fill="#F4F4F5"/>
<circle cx="86.7492" cy="87.56" r="1.95945" fill="#F4F4F5"/>
<path d="M98.7052 47.6756C101.312 47.6756 103.443 45.5447 103.443 42.9379C103.443 40.3311 101.312 38.2002 98.7052 38.2002C96.0984 38.2002 93.9675 40.3311 93.9675 42.9379C93.9675 45.5447 96.0985 47.6756 98.7052 47.6756Z" fill="#EFE5F6"/>
<path d="M109.228 53.3049C109.067 52.9294 108.853 52.5789 108.612 52.2535C107.38 50.5511 105.48 49.4246 103.338 49.1492C103.07 49.1242 102.776 49.1743 102.561 49.3245C101.437 50.1005 100.098 50.5011 98.7059 50.5011C97.3137 50.5011 95.975 50.1005 94.8505 49.3245C94.6363 49.1743 94.3418 49.0992 94.0741 49.1492C91.9322 49.4246 90.0046 50.5511 88.7998 52.2535C88.5588 52.5789 88.3446 52.9544 88.184 53.3049C88.1037 53.4551 88.1304 53.6304 88.2107 53.7806C88.4249 54.131 88.6927 54.4816 88.9336 54.7819C89.3084 55.2576 89.71 55.6832 90.1652 56.0837C90.54 56.4342 90.9684 56.7596 91.3968 57.0851C93.5119 58.5621 96.0554 59.3381 98.6792 59.3381C101.303 59.3381 103.846 58.562 105.962 57.0851C106.39 56.7847 106.818 56.4342 107.193 56.0837C107.621 55.6832 108.05 55.2576 108.425 54.7819C108.692 54.4565 108.933 54.131 109.148 53.7806C109.281 53.6304 109.308 53.4551 109.228 53.3049Z" fill="#EFE5F6"/>
</g>
<rect x="73.8501" y="24.8467" width="94.9576" height="102.339" rx="11.5" stroke="#6E00BE"/>
</g>
<g opacity="0.4">
<path d="M67.4423 32.96C67.6359 32.9706 67.8245 32.8968 67.9723 32.7615C68.4387 32.3356 68.1252 31.4688 67.5085 31.4598C63.7296 30.7967 59.9255 30.2681 56.1565 29.5884C55.2766 29.4998 52.1095 28.5758 50.4421 28.6334C49.4 29.1118 49.8828 30.4374 50.9314 30.4855C55.7797 31.4771 60.7033 31.8798 65.5777 32.6796C66.1833 32.7626 66.8178 32.853 67.4423 32.96Z" fill="#FFA000"/>
<path d="M66.7582 21.6485C63.7951 19.1055 60.5732 16.9386 57.3514 14.7717C56.032 13.9893 54.9087 12.7318 53.4883 12.1735C51.9509 12.0143 51.5821 13.8155 52.7826 14.7406C56.4074 18.1809 60.9533 20.3441 64.72 23.622C66.2818 25.4451 68.5548 23.1726 66.7582 21.6485Z" fill="#FFA000"/>
<path d="M74.0597 16.3425C72.5886 13.4414 71.0096 10.609 69.5056 7.7444C68.5763 5.94074 67.7678 4.06529 66.6847 2.36989C66.2276 1.40916 64.7717 1.55875 64.4944 2.59582C64.3533 3.07213 64.5295 3.50083 64.7446 3.92019C65.0803 4.6389 65.4258 5.34092 65.7614 6.05964C67.8881 10.0165 69.9678 14.0703 72.2812 17.8825C73.2114 18.7582 74.7042 17.4723 74.0597 16.3425Z" fill="#FFA000"/>
</g>
<path fill-rule="evenodd" clip-rule="evenodd" d="M148.581 40.0552C150.171 41.6485 151.283 43.7408 151.671 46.0886C152.174 45.3599 151.685 44.5867 151.83 43.8416C151.979 43.0848 152.437 43.0168 152.745 42.5997C153.115 43.9751 152.75 45.142 151.674 46.1003C151.773 46.7048 151.825 47.3233 151.825 47.956C151.825 48.2137 151.816 48.4691 151.799 48.7221C152.539 48.12 152.269 47.1546 152.648 46.426C153.036 45.6809 153.536 45.7582 153.991 45.4184C153.956 46.9766 153.217 48.0825 151.797 48.7385C151.742 49.5469 151.603 50.3318 151.385 51.0839C152.276 50.6739 152.207 49.65 152.743 49.0127C153.28 48.3707 153.752 48.5605 154.266 48.3309C153.897 49.8562 152.93 50.77 151.382 51.0863C151.171 51.8197 150.889 52.5202 150.541 53.1786C151.441 52.9115 151.555 51.9181 152.178 51.3979C152.818 50.8637 153.25 51.1331 153.795 50.9996C153.176 52.4218 152.084 53.1482 150.531 53.195C150.145 53.9261 149.683 54.6079 149.152 55.2288C150.19 55.1983 150.515 54.1674 151.285 53.7621C152.055 53.3567 152.444 53.7316 153.032 53.7152C152.084 55.0554 150.785 55.5521 149.152 55.2288C148.543 55.9411 147.846 56.5714 147.081 57.1033C148.166 57.197 148.702 56.1731 149.595 55.8778C150.515 55.5756 150.875 56.0606 151.524 56.1543C150.261 57.4336 148.766 57.7452 147.057 57.1197C146.294 57.6468 145.46 58.0756 144.576 58.3896C144.516 58.7809 144.187 59.0784 143.789 59.0784C143.54 59.0784 143.319 58.9613 143.173 58.7785C142.803 58.8535 142.428 58.9097 142.047 58.9472L141.061 60.4023L140.075 58.9472C139.691 58.9121 139.314 58.8535 138.944 58.7785C138.798 58.9613 138.577 59.0784 138.328 59.0784C137.93 59.0784 137.601 58.7785 137.541 58.3872C133.328 56.89 130.301 52.785 130.301 47.9513C130.301 44.8538 131.545 42.0562 133.546 40.0505C131.733 41.9788 130.619 44.6007 130.619 47.4897C130.619 52.232 133.621 56.2551 137.783 57.6656C137.925 57.5273 138.117 57.443 138.331 57.443C138.686 57.443 138.989 57.682 139.091 58.0147C139.293 58.0545 139.497 58.0873 139.703 58.1154L141.066 56.1051L142.428 58.1154C142.632 58.0873 142.834 58.0545 143.033 58.0147C143.135 57.682 143.436 57.443 143.793 57.443C144.007 57.443 144.199 57.5273 144.341 57.6679C148.503 56.2574 151.508 52.2344 151.508 47.4897C151.508 44.6007 150.391 41.9765 148.581 40.0505V40.0552ZM148.045 39.7553C147.811 39.3195 147.322 39.4062 146.993 39.1672C146.663 38.9282 146.73 38.6845 146.597 38.4385C147.341 38.5509 147.822 38.9938 148.045 39.7553ZM149.199 41.4587C148.927 40.7956 148.453 40.4465 147.773 40.4184C147.915 40.6269 147.879 40.8542 148.197 41.0346C148.517 41.215 148.946 41.0908 149.197 41.4587H149.199ZM150.143 43.2769C149.896 42.4334 149.363 41.9437 148.538 41.8195C148.685 42.0913 148.612 42.3631 148.977 42.6279C149.342 42.8903 149.88 42.7966 150.14 43.2792L150.143 43.2769ZM150.854 45.3013C150.745 44.3055 150.245 43.6447 149.346 43.3355C149.458 43.6705 149.32 43.9587 149.678 44.3313C150.034 44.7015 150.657 44.7085 150.854 45.3013ZM151.098 47.9091C151.261 46.7868 150.903 45.9128 150.01 45.3036C150.036 45.7043 149.804 45.9784 150.088 46.4916C150.373 47.0047 151.05 47.1992 151.098 47.9068V47.9091ZM150.735 50.6481C151.226 49.486 151.081 48.4386 150.287 47.5202C150.204 47.9607 149.877 48.1879 150.041 48.8252C150.204 49.4625 150.882 49.8702 150.735 50.6481ZM149.56 53.2442C150.304 52.0399 150.325 50.852 149.598 49.6851C149.429 50.1584 149.026 50.3529 149.1 51.091C149.173 51.829 149.856 52.4054 149.56 53.2442ZM147.984 55.1819C148.908 54.0034 149.064 52.7522 148.434 51.4331C148.202 51.911 147.756 52.068 147.747 52.8553C147.739 53.6426 148.394 54.3314 147.984 55.1796V55.1819ZM146.116 56.719C147.289 55.606 147.654 54.2892 147.183 52.7733C146.86 53.2489 146.355 53.345 146.225 54.1861C146.095 55.0273 146.69 55.8755 146.116 56.7166V56.719ZM144.519 57.4453C145.713 55.988 145.948 54.4181 145.189 52.7428C144.884 53.338 144.317 53.5231 144.286 54.5142C144.256 55.5029 145.059 56.391 144.519 57.4477V57.4453ZM149.131 40.4676C149.192 39.6053 148.87 38.9657 148.157 38.558C148.199 38.8602 148.038 39.0828 148.285 39.4554C148.529 39.8279 149.055 39.9333 149.131 40.4676ZM150.192 42.0046C150.574 41.1025 150.463 40.2918 149.849 39.5772C149.782 39.9193 149.529 40.095 149.657 40.5894C149.782 41.0838 150.309 41.4001 150.195 42.0046H150.192ZM151.242 43.8767C151.918 42.738 151.918 41.625 151.221 40.5472C151.072 40.9924 150.7 41.1822 150.778 41.8711C150.858 42.5599 151.508 43.0871 151.242 43.8767ZM144.749 58.5208C146.294 59.5775 147.839 59.6408 149.377 58.6801C148.766 58.4341 148.524 57.8788 147.562 57.9561C146.6 58.0334 145.829 58.9543 144.749 58.5208ZM133.927 39.7553C134.164 39.3195 134.65 39.4062 134.979 39.1672C135.309 38.9282 135.243 38.6845 135.375 38.4385C134.631 38.5509 134.15 38.9938 133.927 39.7553ZM132.773 41.4587C133.027 41.0908 133.456 41.2173 133.773 41.0346C134.093 40.8542 134.055 40.6269 134.197 40.4184C133.517 40.4441 133.043 40.7956 132.771 41.4587H132.773ZM131.827 43.2769C132.088 42.7942 132.626 42.8903 132.991 42.6255C133.356 42.3608 133.283 42.0913 133.429 41.8172C132.605 41.9413 132.074 42.431 131.825 43.2745L131.827 43.2769ZM131.116 45.3013C131.313 44.7085 131.934 44.7015 132.292 44.3313C132.647 43.9587 132.512 43.6705 132.624 43.3355C131.725 43.6447 131.228 44.3055 131.116 45.3013ZM130.872 47.9091C130.92 47.1992 131.597 47.007 131.882 46.4939C132.166 45.9808 131.934 45.7066 131.96 45.306C131.067 45.9152 130.709 46.7868 130.872 47.9114V47.9091ZM131.235 50.6481C131.088 49.8702 131.766 49.4625 131.929 48.8252C132.093 48.1879 131.766 47.9583 131.683 47.5202C130.889 48.4386 130.744 49.486 131.235 50.6481ZM132.41 53.2442C132.112 52.4054 132.797 51.829 132.87 51.091C132.944 50.3529 132.541 50.1584 132.372 49.6851C131.647 50.852 131.666 52.0399 132.41 53.2442ZM133.986 55.1819C133.576 54.3338 134.231 53.6449 134.223 52.8576C134.216 52.0704 133.768 51.9134 133.536 51.4354C132.906 52.7522 133.062 54.0034 133.986 55.1843V55.1819ZM135.854 56.719C135.28 55.8755 135.878 55.0296 135.745 54.1885C135.615 53.345 135.11 53.2513 134.787 52.7756C134.316 54.2916 134.681 55.606 135.854 56.7213V56.719ZM137.451 57.4453C136.911 56.3886 137.717 55.5029 137.684 54.5118C137.65 53.5231 137.086 53.338 136.781 52.7405C136.022 54.4158 136.257 55.9856 137.451 57.443V57.4453ZM132.844 40.4676C132.92 39.9333 133.446 39.8279 133.69 39.4554C133.934 39.0828 133.776 38.8602 133.818 38.558C133.105 38.9657 132.785 39.6053 132.844 40.4676ZM131.782 42.0046C131.666 41.4001 132.192 41.0838 132.32 40.5894C132.446 40.095 132.192 39.9169 132.128 39.5772C131.512 40.2918 131.403 41.1025 131.785 42.0046H131.782ZM130.732 43.8767C130.467 43.0871 131.116 42.5599 131.197 41.8711C131.278 41.1822 130.903 40.9924 130.754 40.5472C130.057 41.625 130.055 42.738 130.732 43.8767ZM130.327 46.126C129.78 45.3856 130.289 44.5984 130.14 43.8416C129.993 43.0848 129.533 43.0168 129.225 42.5997C128.851 43.9868 129.225 45.163 130.327 46.126ZM130.223 48.762C128.772 48.1083 128.016 46.9953 127.981 45.4184C128.434 45.7558 128.936 45.6785 129.325 46.426C129.713 47.171 129.422 48.1622 130.223 48.762ZM130.602 51.0933C129.692 50.688 129.766 49.6547 129.228 49.015C128.69 48.373 128.218 48.5628 127.704 48.3332C128.073 49.8632 129.047 50.7793 130.602 51.0933ZM131.496 53.2021C130.531 52.9654 130.427 51.9368 129.789 51.4026C129.152 50.8684 128.718 51.1378 128.173 51.0043C128.799 52.4453 129.912 53.1716 131.498 53.2021H131.496ZM132.82 55.2335C131.778 55.2077 131.453 54.1721 130.683 53.7667C129.912 53.3614 129.524 53.7363 128.936 53.7199C129.886 55.0601 131.185 55.5568 132.82 55.2335ZM134.984 57.0986C133.832 57.2649 133.292 56.1871 132.372 55.8849C131.453 55.5826 131.093 56.0676 130.443 56.1613C131.725 57.4571 133.245 57.7616 134.984 57.0986ZM137.224 58.5208C136.141 58.9543 135.373 58.0334 134.411 57.9561C133.448 57.8788 133.207 58.4364 132.595 58.6801C134.133 59.6384 135.679 59.5752 137.224 58.5208Z" fill="url(#paint3_linear_6924_2112)"/>
<path fill-rule="evenodd" clip-rule="evenodd" d="M151.118 54.2613C151.118 54.2613 149.512 53.0241 149 49.9805C148.488 46.9345 150.419 42.614 150.419 42.614C150.419 42.614 148.488 42.5577 145.416 41.5127C142.741 40.6013 141.309 39.6172 140.987 39.3782C140.987 39.3782 140.973 39.336 140.949 39.3524C140.928 39.336 140.913 39.3782 140.913 39.3782C140.591 39.6172 139.162 40.5989 136.484 41.5127C133.412 42.5601 131.481 42.614 131.481 42.614C131.481 42.614 133.412 46.9345 132.9 49.9805C132.388 53.0241 130.85 54.2613 130.85 54.2613C130.677 54.3597 134.777 60.4493 140.913 60.1751C140.928 60.1751 140.939 60.1751 140.949 60.1751C140.961 60.1751 140.973 60.1751 140.987 60.1751C147.087 60.4258 151.325 54.3761 151.118 54.2589V54.2613Z" stroke="url(#paint4_linear_6924_2112)" stroke-width="0.806241" stroke-linecap="round" stroke-linejoin="round"/>
<path fill-rule="evenodd" clip-rule="evenodd" d="M151.224 54.2247C151.224 54.2247 149.617 52.9875 149.105 49.9439C148.594 46.8979 150.525 42.5773 150.525 42.5773C150.525 42.5773 148.594 42.5211 145.522 41.4761C142.846 40.5646 141.415 39.5806 141.093 39.3416C141.093 39.3416 141.078 39.2994 141.055 39.3158C141.033 39.2994 141.019 39.3416 141.019 39.3416C140.697 39.5806 139.268 40.5623 136.59 41.4761C133.518 42.5234 131.586 42.5773 131.586 42.5773C131.586 42.5773 133.518 46.8979 133.006 49.9439C132.494 52.9875 130.956 54.2247 130.956 54.2247C130.783 54.3231 134.883 60.4127 141.019 60.1385C141.033 60.1385 141.045 60.1385 141.055 60.1385C141.066 60.1385 141.078 60.1385 141.093 60.1385C147.193 60.3892 151.43 54.3395 151.224 54.2223V54.2247Z" fill="url(#paint5_linear_6924_2112)"/>
<path d="M140.982 39.9264C141.586 40.3341 142.985 41.1682 145.293 41.9555C147.369 42.6631 148.936 42.9278 149.77 43.0263C149.251 44.3477 148.147 47.5648 148.564 50.0578C148.976 52.5039 150.064 53.8582 150.581 54.3784C150.268 54.8657 149.369 56.0162 147.95 57.1572C146.499 58.3241 144.184 59.7158 141.39 59.7158C141.274 59.7158 141.155 59.7135 141.039 59.7088C141.032 59.7088 141.025 59.7088 141.02 59.7088C141.011 59.7088 141.001 59.7088 140.994 59.7088H140.977C140.977 59.7088 140.958 59.7088 140.949 59.7088C140.942 59.7088 140.935 59.7088 140.928 59.7088C140.8 59.7135 140.676 59.7182 140.548 59.7182C137.749 59.7182 135.458 58.3194 134.029 57.1455C132.656 56.0185 131.77 54.8634 131.455 54.3713C131.952 53.8465 132.993 52.4969 133.403 50.0601C133.628 48.7292 133.448 47.0376 132.874 45.0296C132.654 44.2587 132.415 43.5956 132.253 43.1739C132.234 43.1223 132.216 43.0731 132.197 43.0286C133.028 42.9302 134.593 42.6654 136.673 41.9578C138.977 41.1729 140.38 40.3364 140.984 39.9287M140.994 39.35C140.994 39.35 140.987 39.35 140.984 39.3547C140.982 39.3523 140.977 39.35 140.975 39.35C140.958 39.35 140.949 39.3805 140.949 39.3805C140.627 39.6195 139.197 40.6012 136.519 41.515C133.448 42.5623 131.516 42.6162 131.516 42.6162C131.516 42.6162 133.448 46.9368 132.936 49.9828C132.424 53.0264 130.886 54.2635 130.886 54.2635C130.718 54.3596 134.635 60.1868 140.548 60.1868C140.681 60.1868 140.814 60.1844 140.949 60.1774C140.949 60.1774 140.966 60.1774 140.975 60.1774C140.98 60.1774 140.982 60.1774 140.987 60.1774C140.992 60.1774 140.996 60.1774 140.999 60.1774C141.006 60.1774 141.015 60.1774 141.022 60.1774C141.146 60.1821 141.271 60.1844 141.394 60.1844C147.296 60.1844 151.356 54.376 151.154 54.2612C151.154 54.2612 149.547 53.0241 149.035 49.9804C148.523 46.9345 150.455 42.6139 150.455 42.6139C150.455 42.6139 148.523 42.5576 145.452 41.5126C142.776 40.6012 141.345 39.6171 141.022 39.3781C141.022 39.3781 141.011 39.3477 140.996 39.3477L140.994 39.35Z" fill="url(#paint6_linear_6924_2112)"/>
<g filter="url(#filter6_d_6924_2112)">
<path fill-rule="evenodd" clip-rule="evenodd" d="M148.4 55.4374L148.085 55.2804L147.829 55.5241L147.891 55.1797L147.578 55.0133C147.692 54.9993 147.81 54.9852 147.924 54.9665L147.971 54.6267L148.139 54.9337C148.256 54.9149 148.372 54.8938 148.488 54.8704C148.407 54.9571 148.324 55.0414 148.241 55.1258L148.403 55.4374H148.4Z" fill="url(#paint7_linear_6924_2112)"/>
<path fill-rule="evenodd" clip-rule="evenodd" d="M147.282 56.4355L146.984 56.2434C146.889 56.316 146.799 56.391 146.701 56.459C146.737 56.3488 146.768 56.234 146.801 56.1216L146.51 55.9247L146.858 55.9154C146.889 55.8053 146.912 55.6904 146.941 55.5803L147.076 55.9037L147.429 55.8779L147.157 56.1052L147.282 56.4332V56.4355Z" fill="url(#paint8_linear_6924_2112)"/>
<path fill-rule="evenodd" clip-rule="evenodd" d="M146.052 57.3049L145.779 57.0799L145.473 57.2627L145.613 56.9393L145.35 56.7074L145.696 56.7425C145.739 56.6371 145.777 56.527 145.817 56.4192L145.912 56.7566L146.265 56.7706L145.966 56.9651L146.052 57.3049Z" fill="url(#paint9_linear_6924_2112)"/>
<path fill-rule="evenodd" clip-rule="evenodd" d="M144.708 58.0146L144.471 57.7522L144.139 57.8834L144.328 57.5858L144.101 57.3164C144.21 57.3445 144.324 57.3773 144.437 57.4031L144.601 57.1008L144.648 57.4476L144.999 57.5132L144.674 57.6632L144.71 58.0146H144.708Z" fill="url(#paint10_linear_6924_2112)"/>
<path fill-rule="evenodd" clip-rule="evenodd" d="M143.258 58.5068L143.069 58.2116C142.955 58.2444 142.834 58.2584 142.718 58.2819C142.801 58.1952 142.881 58.1155 142.957 58.0265C142.898 57.9281 142.839 57.825 142.782 57.7219C142.886 57.7758 142.988 57.8133 143.095 57.8601L143.306 57.593L143.294 57.9398C143.403 57.9843 143.516 58.0241 143.628 58.0593C143.516 58.0991 143.398 58.1272 143.282 58.1554L143.256 58.5068H143.258Z" fill="url(#paint11_linear_6924_2112)"/>
<path fill-rule="evenodd" clip-rule="evenodd" d="M141.726 58.699L141.603 58.371L141.248 58.3874L141.525 58.1695L141.402 57.8414L141.696 58.0336L141.973 57.8157L141.878 58.1531L142.174 58.3475L141.821 58.3616L141.726 58.699Z" fill="url(#paint12_linear_6924_2112)"/>
<path fill-rule="evenodd" clip-rule="evenodd" d="M140.23 58.7036L140.135 58.3662L139.782 58.3498L140.076 58.1577L139.981 57.8203L140.258 58.0382L140.554 57.8437L140.431 58.1718L140.709 58.3897L140.353 58.3756L140.23 58.7036Z" fill="url(#paint13_linear_6924_2112)"/>
<path fill-rule="evenodd" clip-rule="evenodd" d="M138.697 58.5183L138.669 58.1668C138.553 58.134 138.437 58.1129 138.323 58.0731C138.434 58.0403 138.548 57.9958 138.657 57.9513L138.645 57.6045L138.858 57.8716C138.965 57.8271 139.067 57.7849 139.171 57.731L138.998 58.038L139.24 58.291C139.124 58.2676 139.003 58.2535 138.887 58.2231L138.7 58.5183H138.697Z" fill="url(#paint14_linear_6924_2112)"/>
<path fill-rule="evenodd" clip-rule="evenodd" d="M137.244 58.0288L137.28 57.6773L136.955 57.525L137.304 57.4618L137.351 57.115L137.515 57.4196C137.628 57.3938 137.74 57.3634 137.851 57.3329L137.626 57.6023L137.816 57.8999L137.484 57.7664L137.244 58.0288Z" fill="url(#paint15_linear_6924_2112)"/>
<path fill-rule="evenodd" clip-rule="evenodd" d="M135.902 57.3166L135.987 56.9768L135.691 56.78L136.044 56.7683L136.141 56.4309C136.179 56.5363 136.217 56.6512 136.26 56.7542L136.606 56.7214L136.34 56.9511C136.385 57.0588 136.43 57.1666 136.48 57.2744L136.174 57.0916L135.899 57.3166H135.902Z" fill="url(#paint16_linear_6924_2112)"/>
<path fill-rule="evenodd" clip-rule="evenodd" d="M134.676 56.4379L134.804 56.1122L134.534 55.8826L134.887 55.9107L135.024 55.5874C135.05 55.6975 135.074 55.8123 135.102 55.9225L135.451 55.9342L135.159 56.1286C135.19 56.2388 135.221 56.3559 135.256 56.466C135.162 56.3958 135.069 56.3208 134.977 56.2481L134.676 56.4379Z" fill="url(#paint17_linear_6924_2112)"/>
<path fill-rule="evenodd" clip-rule="evenodd" d="M133.567 55.4281L133.733 55.1165C133.65 55.0321 133.569 54.9454 133.489 54.8587C133.605 54.8845 133.719 54.9079 133.837 54.9267L134.008 54.6221L134.051 54.9642C134.164 54.9852 134.28 54.9993 134.394 55.0157L134.081 55.1774L134.141 55.5241L133.887 55.2758L133.569 55.4304L133.567 55.4281Z" fill="url(#paint18_linear_6924_2112)"/>
</g>
<path d="M136.899 51.1488H137.105V52.243C136.84 52.4937 136.456 52.6179 136.051 52.6179C135.16 52.6179 134.505 51.9876 134.505 51.1371C134.505 50.2865 135.16 49.6562 136.055 49.6562C136.482 49.6562 136.857 49.7898 137.12 50.0569L136.984 50.1998C136.726 49.9491 136.418 49.8531 136.06 49.8531C135.292 49.8531 134.724 50.4037 134.724 51.1371C134.724 51.8704 135.292 52.4211 136.06 52.4211C136.373 52.4211 136.66 52.3461 136.899 52.1539V51.1488ZM137.854 51.1371C137.854 50.2889 138.508 49.6562 139.39 49.6562C140.272 49.6562 140.926 50.2865 140.926 51.1371C140.926 51.9876 140.267 52.6179 139.39 52.6179C138.513 52.6179 137.854 51.9829 137.854 51.1371ZM140.708 51.1371C140.708 50.399 140.141 49.8531 139.39 49.8531C138.639 49.8531 138.07 50.399 138.07 51.1371C138.07 51.8751 138.636 52.4211 139.39 52.4211C140.144 52.4211 140.708 51.8751 140.708 51.1371ZM141.76 49.6773H141.976V52.407H143.677V52.5991H141.762V49.6797L141.76 49.6773ZM144.315 49.6773H145.483C146.419 49.6773 147.052 50.2865 147.052 51.1371C147.052 51.9876 146.419 52.5968 145.483 52.5968H144.315V49.6773ZM145.467 52.407C146.303 52.407 146.839 51.8822 146.839 51.1394C146.839 50.3967 146.303 49.8718 145.467 49.8718H144.531V52.4093H145.467V52.407Z" fill="#584118"/>
<path d="M134.931 46.6733V47.1513H135.779V47.4887H134.931V48.1495H134.506V46.3359H135.89V46.6733H134.931Z" fill="#584118"/>
<path d="M136.584 48.0583C136.433 47.9763 136.312 47.8661 136.227 47.7232C136.141 47.5803 136.096 47.421 136.096 47.2429C136.096 47.0648 136.139 46.9055 136.227 46.7626C136.314 46.6196 136.433 46.5095 136.584 46.4275C136.736 46.3455 136.909 46.3057 137.099 46.3057C137.288 46.3057 137.459 46.3455 137.611 46.4275C137.762 46.5095 137.881 46.6196 137.968 46.7626C138.056 46.9055 138.099 47.0648 138.099 47.2429C138.099 47.421 138.056 47.5803 137.968 47.7232C137.881 47.8661 137.762 47.9763 137.611 48.0583C137.459 48.1403 137.288 48.1801 137.099 48.1801C136.909 48.1801 136.736 48.1403 136.584 48.0583ZM137.393 47.749C137.48 47.6998 137.549 47.6318 137.599 47.5428C137.649 47.4538 137.675 47.3554 137.675 47.2429C137.675 47.1304 137.649 47.0297 137.599 46.943C137.549 46.8563 137.48 46.786 137.393 46.7368C137.305 46.6876 137.208 46.6642 137.099 46.6642C136.99 46.6642 136.893 46.6876 136.805 46.7368C136.717 46.786 136.648 46.8539 136.599 46.943C136.549 47.032 136.525 47.1304 136.525 47.2429C136.525 47.3554 136.549 47.4561 136.599 47.5428C136.648 47.6295 136.717 47.6998 136.805 47.749C136.893 47.7982 136.99 47.8216 137.099 47.8216C137.208 47.8216 137.305 47.7982 137.393 47.749Z" fill="#584118"/>
<path d="M138.678 47.9644C138.534 47.8214 138.46 47.6176 138.46 47.3505V46.3359H138.885V47.3341C138.885 47.6574 139.02 47.8214 139.292 47.8214C139.425 47.8214 139.527 47.7816 139.596 47.7043C139.664 47.627 139.7 47.5028 139.7 47.3364V46.3359H140.119V47.3505C140.119 47.6152 140.046 47.8214 139.901 47.9644C139.757 48.1073 139.553 48.1799 139.29 48.1799C139.027 48.1799 138.825 48.1073 138.678 47.9644Z" fill="#584118"/>
<path d="M142.267 46.3359V48.1471H141.919L141.006 47.0482V48.1471H140.587V46.3359H140.938L141.848 47.4348V46.3359H142.267Z" fill="#584118"/>
<path d="M142.754 46.3359H143.586C143.785 46.3359 143.961 46.3734 144.115 46.4484C144.266 46.5234 144.385 46.6288 144.47 46.7647C144.555 46.9006 144.598 47.0599 144.598 47.2404C144.598 47.4208 144.555 47.5801 144.47 47.716C144.385 47.8519 144.266 47.9573 144.115 48.0323C143.963 48.1073 143.785 48.1448 143.586 48.1448H142.754V46.3359ZM143.565 47.8027C143.747 47.8027 143.894 47.7511 144.003 47.6504C144.112 47.5496 144.167 47.4137 144.167 47.2404C144.167 47.067 144.112 46.9311 144.003 46.8303C143.894 46.7296 143.747 46.678 143.565 46.678H143.179V47.8027H143.565Z" fill="#584118"/>
<path d="M144.969 46.3359H145.393V48.1471H144.969V46.3359Z" fill="#584118"/>
<path d="M146.259 46.678H145.674V46.3359H147.271V46.678H146.686V48.1471H146.262V46.678H146.259Z" fill="#584118"/>
<g opacity="0.17">
<path d="M137.938 42.2108C136.442 42.9372 134.852 43.6776 133.15 43.694L133.271 43.537C134.478 47.5061 134.504 52.3071 131.821 55.6857C133.722 53.1224 134.193 49.7719 133.748 46.6673C132.987 41.1916 131.567 45.1115 137.938 42.2085V42.2108Z" fill="#F8F9F9"/>
</g>
<g filter="url(#filter7_d_6924_2112)">
<path d="M142.348 43.5558C141.943 43.4785 141.478 43.4363 140.985 43.4363C140.492 43.4363 140.028 43.4809 139.623 43.5558C139.438 42.7826 138.829 42.6046 138.829 42.6046C139.047 42.4734 139.189 42.4218 139.284 42.4218C139.473 42.4218 139.478 42.6257 139.549 42.778C139.618 42.9256 139.729 42.9724 139.836 42.9724C139.879 42.9724 139.921 42.9654 139.961 42.9513C140.146 42.8928 140.139 42.7077 140.132 42.6702C140.111 42.5624 140.03 42.5343 139.971 42.4874C139.9 42.4312 139.831 42.3304 139.897 42.225C139.933 42.1688 139.995 42.1242 140.073 42.1242C140.089 42.1242 140.104 42.1242 140.12 42.1289C140.27 42.1617 140.27 42.3093 140.248 42.3937C140.229 42.4687 140.217 42.5179 140.239 42.5882C140.277 42.7123 140.388 42.7873 140.523 42.7873C140.585 42.7873 140.654 42.7709 140.72 42.7358C140.838 42.6725 140.912 42.4827 140.786 42.3281C140.663 42.1758 140.544 41.986 140.746 41.7868C140.848 41.6861 140.94 41.6017 140.981 41.5361C141.021 41.6041 141.113 41.6861 141.215 41.7868C141.417 41.986 141.298 42.1734 141.175 42.3281C141.052 42.4804 141.123 42.6725 141.244 42.7358C141.31 42.7709 141.379 42.7873 141.44 42.7873C141.573 42.7873 141.687 42.7123 141.725 42.5882C141.746 42.5179 141.737 42.4687 141.715 42.3937C141.694 42.3093 141.694 42.1617 141.843 42.1289C141.86 42.1242 141.876 42.1242 141.891 42.1242C141.969 42.1242 142.03 42.1688 142.066 42.225C142.132 42.3328 142.064 42.4312 141.993 42.4874C141.936 42.5343 141.853 42.5647 141.831 42.6702C141.824 42.7077 141.817 42.8928 142.002 42.9513C142.04 42.9631 142.083 42.9724 142.128 42.9724C142.234 42.9724 142.346 42.9256 142.414 42.778C142.486 42.6257 142.49 42.4218 142.68 42.4218C142.775 42.4218 142.914 42.471 143.135 42.6046C143.135 42.6046 142.526 42.7803 142.341 43.5558M141.616 43.0544C141.568 43.0544 141.53 43.0919 141.53 43.1388C141.53 43.1856 141.568 43.2231 141.616 43.2231C141.663 43.2231 141.701 43.1856 141.701 43.1388C141.701 43.0919 141.663 43.0544 141.616 43.0544ZM140.343 43.0544C140.296 43.0544 140.258 43.0919 140.258 43.1388C140.258 43.1856 140.296 43.2231 140.343 43.2231C140.39 43.2231 140.428 43.1856 140.428 43.1388C140.428 43.0919 140.39 43.0544 140.343 43.0544ZM140.981 42.9068C140.907 42.9068 140.845 42.9677 140.845 43.0404C140.845 43.113 140.907 43.1739 140.981 43.1739C141.054 43.1739 141.116 43.113 141.116 43.0404C141.116 42.9677 141.054 42.9068 140.981 42.9068ZM142.528 42.7686C142.528 42.8436 142.538 42.9279 142.559 42.9279C142.566 42.9279 142.573 42.9232 142.58 42.9092C142.756 42.6257 143.009 42.5882 143.009 42.5882C143.009 42.5882 142.848 42.4874 142.706 42.4757C142.701 42.4757 142.696 42.4757 142.694 42.4757C142.561 42.4757 142.535 42.6585 142.535 42.6585C142.531 42.6749 142.528 42.7217 142.528 42.7709M138.957 42.5882C138.957 42.5882 139.21 42.6257 139.386 42.9092C139.393 42.9232 139.402 42.9279 139.407 42.9279C139.431 42.9279 139.438 42.8412 139.438 42.7639C139.438 42.717 139.435 42.6725 139.431 42.6561C139.431 42.6561 139.402 42.4734 139.272 42.4734C139.267 42.4734 139.265 42.4734 139.26 42.4734C139.118 42.4851 138.957 42.5858 138.957 42.5858M141.888 42.4546C141.888 42.4546 141.895 42.4546 141.9 42.4546C141.976 42.4476 142.016 42.3773 142.016 42.3117C142.016 42.2508 141.981 42.1922 141.905 42.1922C141.888 42.1922 141.872 42.1945 141.85 42.1992C141.812 42.2109 141.758 42.2461 141.758 42.3211C141.758 42.4031 141.824 42.4546 141.888 42.4546ZM140.066 42.4546C140.066 42.4546 140.073 42.4546 140.078 42.4546C140.153 42.4476 140.194 42.3773 140.194 42.3117C140.194 42.2508 140.158 42.1922 140.082 42.1922C140.066 42.1922 140.049 42.1945 140.028 42.1992C139.99 42.2109 139.935 42.2461 139.935 42.3211C139.935 42.4031 140.002 42.4546 140.066 42.4546ZM140.727 42.0305C140.727 42.1477 140.796 42.2273 140.938 42.3515C140.954 42.3656 140.964 42.3703 140.971 42.3703C140.981 42.3703 140.983 42.3609 140.983 42.3445C140.983 42.3047 140.964 42.2203 140.964 42.136C140.964 42.0188 141 41.9016 141.175 41.8852C141.149 41.8079 141.04 41.7142 140.992 41.6791C140.992 41.6791 140.739 41.8454 140.729 42.0094C140.729 42.0165 140.729 42.0235 140.729 42.0282" fill="url(#paint19_linear_6924_2112)"/>
</g>
<defs>
<filter id="filter0_dd_6924_2112" x="0.737096" y="32.6693" width="87.0626" height="93.0153" filterUnits="userSpaceOnUse" color-interpolation-filters="sRGB">
<feFlood flood-opacity="0" result="BackgroundImageFix"/>
<feColorMatrix in="SourceAlpha" type="matrix" values="0 0 0 0 0 0 0 0 0 0 0 0 0 0 0 0 0 0 127 0" result="hardAlpha"/>
<feMorphology radius="1.6129" operator="erode" in="SourceAlpha" result="effect1_dropShadow_6924_2112"/>
<feOffset dy="1.6129"/>
<feGaussianBlur stdDeviation="0.806452"/>
<feComposite in2="hardAlpha" operator="out"/>
<feColorMatrix type="matrix" values="0 0 0 0 0 0 0 0 0 0 0 0 0 0 0 0 0 0 0.15 0"/>
<feBlend mode="normal" in2="BackgroundImageFix" result="effect1_dropShadow_6924_2112"/>
<feColorMatrix in="SourceAlpha" type="matrix" values="0 0 0 0 0 0 0 0 0 0 0 0 0 0 0 0 0 0 127 0" result="hardAlpha"/>
<feMorphology radius="1.6129" operator="erode" in="SourceAlpha" result="effect2_dropShadow_6924_2112"/>
<feOffset dy="3.22581"/>
<feGaussianBlur stdDeviation="3.22581"/>
<feComposite in2="hardAlpha" operator="out"/>
<feColorMatrix type="matrix" values="0 0 0 0 0 0 0 0 0 0 0 0 0 0 0 0 0 0 0.08 0"/>
<feBlend mode="normal" in2="effect1_dropShadow_6924_2112" result="effect2_dropShadow_6924_2112"/>
<feBlend mode="normal" in="SourceGraphic" in2="effect2_dropShadow_6924_2112" result="shape"/>
</filter>
<filter id="filter1_dd_6924_2112" x="8.01789" y="40.5292" width="72.5463" height="79.3312" filterUnits="userSpaceOnUse" color-interpolation-filters="sRGB">
<feFlood flood-opacity="0" result="BackgroundImageFix"/>
<feColorMatrix in="SourceAlpha" type="matrix" values="0 0 0 0 0 0 0 0 0 0 0 0 0 0 0 0 0 0 127 0" result="hardAlpha"/>
<feMorphology radius="1.6378" operator="erode" in="SourceAlpha" result="effect1_dropShadow_6924_2112"/>
<feOffset dy="1.6378"/>
<feGaussianBlur stdDeviation="0.818898"/>
<feComposite in2="hardAlpha" operator="out"/>
<feColorMatrix type="matrix" values="0 0 0 0 0 0 0 0 0 0 0 0 0 0 0 0 0 0 0.15 0"/>
<feBlend mode="normal" in2="BackgroundImageFix" result="effect1_dropShadow_6924_2112"/>
<feColorMatrix in="SourceAlpha" type="matrix" values="0 0 0 0 0 0 0 0 0 0 0 0 0 0 0 0 0 0 127 0" result="hardAlpha"/>
<feMorphology radius="1.6378" operator="erode" in="SourceAlpha" result="effect2_dropShadow_6924_2112"/>
<feOffset dy="3.27559"/>
<feGaussianBlur stdDeviation="3.27559"/>
<feComposite in2="hardAlpha" operator="out"/>
<feColorMatrix type="matrix" values="0 0 0 0 0 0 0 0 0 0 0 0 0 0 0 0 0 0 0.08 0"/>
<feBlend mode="normal" in2="effect1_dropShadow_6924_2112" result="effect2_dropShadow_6924_2112"/>
<feBlend mode="normal" in="SourceGraphic" in2="effect2_dropShadow_6924_2112" result="shape"/>
</filter>
<filter id="filter2_dd_6924_2112" x="156.2" y="32.1283" width="87.0626" height="93.0153" filterUnits="userSpaceOnUse" color-interpolation-filters="sRGB">
<feFlood flood-opacity="0" result="BackgroundImageFix"/>
<feColorMatrix in="SourceAlpha" type="matrix" values="0 0 0 0 0 0 0 0 0 0 0 0 0 0 0 0 0 0 127 0" result="hardAlpha"/>
<feMorphology radius="1.6129" operator="erode" in="SourceAlpha" result="effect1_dropShadow_6924_2112"/>
<feOffset dy="1.6129"/>
<feGaussianBlur stdDeviation="0.806452"/>
<feComposite in2="hardAlpha" operator="out"/>
<feColorMatrix type="matrix" values="0 0 0 0 0 0 0 0 0 0 0 0 0 0 0 0 0 0 0.15 0"/>
<feBlend mode="normal" in2="BackgroundImageFix" result="effect1_dropShadow_6924_2112"/>
<feColorMatrix in="SourceAlpha" type="matrix" values="0 0 0 0 0 0 0 0 0 0 0 0 0 0 0 0 0 0 127 0" result="hardAlpha"/>
<feMorphology radius="1.6129" operator="erode" in="SourceAlpha" result="effect2_dropShadow_6924_2112"/>
<feOffset dy="3.22581"/>
<feGaussianBlur stdDeviation="3.22581"/>
<feComposite in2="hardAlpha" operator="out"/>
<feColorMatrix type="matrix" values="0 0 0 0 0 0 0 0 0 0 0 0 0 0 0 0 0 0 0.08 0"/>
<feBlend mode="normal" in2="effect1_dropShadow_6924_2112" result="effect2_dropShadow_6924_2112"/>
<feBlend mode="normal" in="SourceGraphic" in2="effect2_dropShadow_6924_2112" result="shape"/>
</filter>
<filter id="filter3_dd_6924_2112" x="163.348" y="39.4022" width="73.3111" height="79.3312" filterUnits="userSpaceOnUse" color-interpolation-filters="sRGB">
<feFlood flood-opacity="0" result="BackgroundImageFix"/>
<feColorMatrix in="SourceAlpha" type="matrix" values="0 0 0 0 0 0 0 0 0 0 0 0 0 0 0 0 0 0 127 0" result="hardAlpha"/>
<feMorphology radius="1.6378" operator="erode" in="SourceAlpha" result="effect1_dropShadow_6924_2112"/>
<feOffset dy="1.6378"/>
<feGaussianBlur stdDeviation="0.818898"/>
<feComposite in2="hardAlpha" operator="out"/>
<feColorMatrix type="matrix" values="0 0 0 0 0 0 0 0 0 0 0 0 0 0 0 0 0 0 0.15 0"/>
<feBlend mode="normal" in2="BackgroundImageFix" result="effect1_dropShadow_6924_2112"/>
<feColorMatrix in="SourceAlpha" type="matrix" values="0 0 0 0 0 0 0 0 0 0 0 0 0 0 0 0 0 0 127 0" result="hardAlpha"/>
<feMorphology radius="1.6378" operator="erode" in="SourceAlpha" result="effect2_dropShadow_6924_2112"/>
<feOffset dy="3.27559"/>
<feGaussianBlur stdDeviation="3.27559"/>
<feComposite in2="hardAlpha" operator="out"/>
<feColorMatrix type="matrix" values="0 0 0 0 0 0 0 0 0 0 0 0 0 0 0 0 0 0 0.08 0"/>
<feBlend mode="normal" in2="effect1_dropShadow_6924_2112" result="effect2_dropShadow_6924_2112"/>
<feBlend mode="normal" in="SourceGraphic" in2="effect2_dropShadow_6924_2112" result="shape"/>
</filter>
<filter id="filter4_dd_6924_2112" x="67.3501" y="22.3467" width="107.958" height="115.339" filterUnits="userSpaceOnUse" color-interpolation-filters="sRGB">
<feFlood flood-opacity="0" result="BackgroundImageFix"/>
<feColorMatrix in="SourceAlpha" type="matrix" values="0 0 0 0 0 0 0 0 0 0 0 0 0 0 0 0 0 0 127 0" result="hardAlpha"/>
<feMorphology radius="2" operator="erode" in="SourceAlpha" result="effect1_dropShadow_6924_2112"/>
<feOffset dy="2"/>
<feGaussianBlur stdDeviation="1"/>
<feComposite in2="hardAlpha" operator="out"/>
<feColorMatrix type="matrix" values="0 0 0 0 0 0 0 0 0 0 0 0 0 0 0 0 0 0 0.15 0"/>
<feBlend mode="normal" in2="BackgroundImageFix" result="effect1_dropShadow_6924_2112"/>
<feColorMatrix in="SourceAlpha" type="matrix" values="0 0 0 0 0 0 0 0 0 0 0 0 0 0 0 0 0 0 127 0" result="hardAlpha"/>
<feMorphology radius="2" operator="erode" in="SourceAlpha" result="effect2_dropShadow_6924_2112"/>
<feOffset dy="4"/>
<feGaussianBlur stdDeviation="4"/>
<feComposite in2="hardAlpha" operator="out"/>
<feColorMatrix type="matrix" values="0 0 0 0 0 0 0 0 0 0 0 0 0 0 0 0 0 0 0.08 0"/>
<feBlend mode="normal" in2="effect1_dropShadow_6924_2112" result="effect2_dropShadow_6924_2112"/>
<feBlend mode="normal" in="SourceGraphic" in2="effect2_dropShadow_6924_2112" result="shape"/>
</filter>
<filter id="filter5_dd_6924_2112" x="72.8722" y="26.5532" width="97.5845" height="105.602" filterUnits="userSpaceOnUse" color-interpolation-filters="sRGB">
<feFlood flood-opacity="0" result="BackgroundImageFix"/>
<feColorMatrix in="SourceAlpha" type="matrix" values="0 0 0 0 0 0 0 0 0 0 0 0 0 0 0 0 0 0 127 0" result="hardAlpha"/>
<feMorphology radius="2.17241" operator="erode" in="SourceAlpha" result="effect1_dropShadow_6924_2112"/>
<feOffset dy="2.17241"/>
<feGaussianBlur stdDeviation="1.08621"/>
<feComposite in2="hardAlpha" operator="out"/>
<feColorMatrix type="matrix" values="0 0 0 0 0 0 0 0 0 0 0 0 0 0 0 0 0 0 0.15 0"/>
<feBlend mode="normal" in2="BackgroundImageFix" result="effect1_dropShadow_6924_2112"/>
<feColorMatrix in="SourceAlpha" type="matrix" values="0 0 0 0 0 0 0 0 0 0 0 0 0 0 0 0 0 0 127 0" result="hardAlpha"/>
<feMorphology radius="2.17241" operator="erode" in="SourceAlpha" result="effect2_dropShadow_6924_2112"/>
<feOffset dy="4.34483"/>
<feGaussianBlur stdDeviation="4.34483"/>
<feComposite in2="hardAlpha" operator="out"/>
<feColorMatrix type="matrix" values="0 0 0 0 0 0 0 0 0 0 0 0 0 0 0 0 0 0 0.08 0"/>
<feBlend mode="normal" in2="effect1_dropShadow_6924_2112" result="effect2_dropShadow_6924_2112"/>
<feBlend mode="normal" in="SourceGraphic" in2="effect2_dropShadow_6924_2112" result="shape"/>
</filter>
<filter id="filter6_d_6924_2112" x="133.086" y="54.219" width="15.8051" height="4.88778" filterUnits="userSpaceOnUse" color-interpolation-filters="sRGB">
<feFlood flood-opacity="0" result="BackgroundImageFix"/>
<feColorMatrix in="SourceAlpha" type="matrix" values="0 0 0 0 0 0 0 0 0 0 0 0 0 0 0 0 0 0 127 0" result="hardAlpha"/>
<feOffset/>
<feGaussianBlur stdDeviation="0.20156"/>
<feColorMatrix type="matrix" values="0 0 0 0 0.619608 0 0 0 0 0.439216 0 0 0 0 0.164706 0 0 0 1 0"/>
<feBlend mode="normal" in2="BackgroundImageFix" result="effect1_dropShadow_6924_2112"/>
<feBlend mode="normal" in="SourceGraphic" in2="effect1_dropShadow_6924_2112" result="shape"/>
</filter>
<filter id="filter7_d_6924_2112" x="138.425" y="41.133" width="5.11252" height="2.82577" filterUnits="userSpaceOnUse" color-interpolation-filters="sRGB">
<feFlood flood-opacity="0" result="BackgroundImageFix"/>
<feColorMatrix in="SourceAlpha" type="matrix" values="0 0 0 0 0 0 0 0 0 0 0 0 0 0 0 0 0 0 127 0" result="hardAlpha"/>
<feOffset/>
<feGaussianBlur stdDeviation="0.20156"/>
<feColorMatrix type="matrix" values="0 0 0 0 0.619608 0 0 0 0 0.439216 0 0 0 0 0.164706 0 0 0 1 0"/>
<feBlend mode="normal" in2="BackgroundImageFix" result="effect1_dropShadow_6924_2112"/>
<feBlend mode="normal" in="SourceGraphic" in2="effect1_dropShadow_6924_2112" result="shape"/>
</filter>
<linearGradient id="paint0_linear_6924_2112" x1="82.9609" y1="34.2822" x2="-9.43731" y2="94.6357" gradientUnits="userSpaceOnUse">
<stop stop-color="#FAF2FF"/>
<stop offset="1" stop-color="white"/>
</linearGradient>
<linearGradient id="paint1_linear_6924_2112" x1="238.424" y1="33.7412" x2="146.026" y2="94.0947" gradientUnits="userSpaceOnUse">
<stop stop-color="#F2DFFF"/>
<stop offset="1" stop-color="white"/>
</linearGradient>
<linearGradient id="paint2_linear_6924_2112" x1="73.3501" y1="78.7002" x2="169.308" y2="78.7002" gradientUnits="userSpaceOnUse">
<stop stop-color="#4A0879"/>
<stop offset="1" stop-color="#6E00BE"/>
</linearGradient>
<linearGradient id="paint3_linear_6924_2112" x1="127.704" y1="49.4227" x2="154.269" y2="49.4227" gradientUnits="userSpaceOnUse">
<stop stop-color="#805818"/>
<stop offset="0.29" stop-color="#EEB674"/>
<stop offset="0.61" stop-color="#7F6020"/>
<stop offset="1" stop-color="#E2BD4D"/>
</linearGradient>
<linearGradient id="paint4_linear_6924_2112" x1="130.372" y1="49.765" x2="151.6" y2="49.765" gradientUnits="userSpaceOnUse">
<stop stop-color="#B4983E"/>
<stop offset="1" stop-color="#583A00"/>
</linearGradient>
<linearGradient id="paint5_linear_6924_2112" x1="130.954" y1="49.7283" x2="151.231" y2="49.7283" gradientUnits="userSpaceOnUse">
<stop stop-color="#805818"/>
<stop offset="1" stop-color="#E2BD4D"/>
</linearGradient>
<linearGradient id="paint6_linear_6924_2112" x1="130.876" y1="49.7649" x2="151.156" y2="49.7649" gradientUnits="userSpaceOnUse">
<stop stop-color="#583A00"/>
<stop offset="1" stop-color="#81631F"/>
</linearGradient>
<linearGradient id="paint7_linear_6924_2112" x1="147.575" y1="55.0742" x2="148.483" y2="55.0742" gradientUnits="userSpaceOnUse">
<stop stop-color="#805818"/>
<stop offset="0.33" stop-color="#E2BD4D"/>
<stop offset="1" stop-color="#855C1A"/>
</linearGradient>
<linearGradient id="paint8_linear_6924_2112" x1="146.51" y1="56.0208" x2="147.427" y2="56.0208" gradientUnits="userSpaceOnUse">
<stop stop-color="#805818"/>
<stop offset="0.33" stop-color="#E2BD4D"/>
<stop offset="1" stop-color="#855C1A"/>
</linearGradient>
<linearGradient id="paint9_linear_6924_2112" x1="145.348" y1="56.862" x2="146.263" y2="56.862" gradientUnits="userSpaceOnUse">
<stop stop-color="#805818"/>
<stop offset="0.33" stop-color="#E2BD4D"/>
<stop offset="1" stop-color="#855C1A"/>
</linearGradient>
<linearGradient id="paint10_linear_6924_2112" x1="144.099" y1="57.5577" x2="144.997" y2="57.5577" gradientUnits="userSpaceOnUse">
<stop stop-color="#805818"/>
<stop offset="0.33" stop-color="#E2BD4D"/>
<stop offset="1" stop-color="#855C1A"/>
</linearGradient>
<linearGradient id="paint11_linear_6924_2112" x1="142.718" y1="58.0499" x2="143.628" y2="58.0499" gradientUnits="userSpaceOnUse">
<stop stop-color="#805818"/>
<stop offset="0.33" stop-color="#E2BD4D"/>
<stop offset="1" stop-color="#855C1A"/>
</linearGradient>
<linearGradient id="paint12_linear_6924_2112" x1="141.248" y1="58.2585" x2="142.174" y2="58.2585" gradientUnits="userSpaceOnUse">
<stop stop-color="#805818"/>
<stop offset="0.33" stop-color="#E2BD4D"/>
<stop offset="1" stop-color="#855C1A"/>
</linearGradient>
<linearGradient id="paint13_linear_6924_2112" x1="139.782" y1="58.2608" x2="140.709" y2="58.2608" gradientUnits="userSpaceOnUse">
<stop stop-color="#805818"/>
<stop offset="0.33" stop-color="#E2BD4D"/>
<stop offset="1" stop-color="#855C1A"/>
</linearGradient>
<linearGradient id="paint14_linear_6924_2112" x1="138.325" y1="58.0614" x2="139.238" y2="58.0614" gradientUnits="userSpaceOnUse">
<stop stop-color="#805818"/>
<stop offset="0.33" stop-color="#E2BD4D"/>
<stop offset="1" stop-color="#855C1A"/>
</linearGradient>
<linearGradient id="paint15_linear_6924_2112" x1="136.955" y1="57.5719" x2="137.851" y2="57.5719" gradientUnits="userSpaceOnUse">
<stop stop-color="#805818"/>
<stop offset="0.33" stop-color="#E2BD4D"/>
<stop offset="1" stop-color="#855C1A"/>
</linearGradient>
<linearGradient id="paint16_linear_6924_2112" x1="135.693" y1="56.8737" x2="136.608" y2="56.8737" gradientUnits="userSpaceOnUse">
<stop stop-color="#805818"/>
<stop offset="0.33" stop-color="#E2BD4D"/>
<stop offset="1" stop-color="#855C1A"/>
</linearGradient>
<linearGradient id="paint17_linear_6924_2112" x1="134.534" y1="56.0279" x2="135.451" y2="56.0279" gradientUnits="userSpaceOnUse">
<stop stop-color="#805818"/>
<stop offset="0.33" stop-color="#E2BD4D"/>
<stop offset="1" stop-color="#855C1A"/>
</linearGradient>
<linearGradient id="paint18_linear_6924_2112" x1="133.489" y1="55.0719" x2="134.394" y2="55.0719" gradientUnits="userSpaceOnUse">
<stop stop-color="#805818"/>
<stop offset="0.33" stop-color="#E2BD4D"/>
<stop offset="1" stop-color="#855C1A"/>
</linearGradient>
<linearGradient id="paint19_linear_6924_2112" x1="138.831" y1="42.546" x2="143.142" y2="42.546" gradientUnits="userSpaceOnUse">
<stop stop-color="#805818"/>
<stop offset="0.29" stop-color="#EEB674"/>
<stop offset="0.61" stop-color="#7F6020"/>
<stop offset="1" stop-color="#E2BD4D"/>
</linearGradient>
<clipPath id="clip0_6924_2112">
<rect x="5.57581" y="34.2822" width="77.3851" height="83.3378" rx="9.67742" fill="white"/>
</clipPath>
<clipPath id="clip1_6924_2112">
<rect x="161.039" y="33.7412" width="77.3851" height="83.3378" rx="9.67742" fill="white"/>
</clipPath>
<clipPath id="clip2_6924_2112">
<rect x="73.3501" y="24.3467" width="95.9576" height="103.339" rx="12" fill="white"/>
</clipPath>
</defs>
</svg>
