<svg width="236" height="150" viewBox="0 0 236 150" fill="none" xmlns="http://www.w3.org/2000/svg">
<g filter="url(#filter0_dd_6924_1929)">
<g clip-path="url(#clip0_6924_1929)">
<rect x="5.81982" y="39.9624" width="74.5642" height="80.2999" rx="9.67742" fill="url(#paint0_linear_6924_1929)"/>
<rect x="-19.2114" y="17.1558" width="124.194" height="124.194" rx="62.0968" fill="#6E00BE" fill-opacity="0.02"/>
<rect x="0.143433" y="36.5107" width="85.4839" height="85.4839" rx="42.7419" fill="#6E00BE" fill-opacity="0.02"/>
<path fill-rule="evenodd" clip-rule="evenodd" d="M63.8357 80.2272V69.5176L63.8358 69.5081L63.8357 69.4985V65.6102C63.8357 61.574 60.5635 58.3018 56.5273 58.3018H29.2423C25.2061 58.3018 21.9338 61.574 21.9338 65.6102V92.8952C21.9338 96.9314 25.2061 100.204 29.2423 100.204H43.8592C44.6661 100.204 45.3209 99.5488 45.3209 98.7419C45.3209 97.9351 44.6661 97.2803 43.8592 97.2803H29.2423C26.8198 97.2803 24.8572 95.3177 24.8572 92.8952V70.9697H60.9123V80.2272C60.9123 81.034 61.5672 81.6889 62.374 81.6889C63.1809 81.6889 63.8357 81.034 63.8357 80.2272ZM60.9123 65.6102V68.0464H24.8572V65.6102C24.8572 63.1877 26.8198 61.2251 29.2423 61.2251H56.5273C58.9498 61.2251 60.9123 63.1877 60.9123 65.6102ZM45.8085 64.6358C45.8085 65.4431 45.154 66.0975 44.3468 66.0975C43.5395 66.0975 42.8851 65.4431 42.8851 64.6358C42.8851 63.8285 43.5395 63.1741 44.3468 63.1741C45.154 63.1741 45.8085 63.8285 45.8085 64.6358ZM49.706 66.0975C50.5133 66.0975 51.1677 65.4431 51.1677 64.6358C51.1677 63.8285 50.5133 63.1741 49.706 63.1741C48.8988 63.1741 48.2444 63.8285 48.2444 64.6358C48.2444 65.4431 48.8988 66.0975 49.706 66.0975ZM56.527 64.6358C56.527 65.4431 55.8726 66.0975 55.0653 66.0975C54.2581 66.0975 53.6036 65.4431 53.6036 64.6358C53.6036 63.8285 54.2581 63.1741 55.0653 63.1741C55.8726 63.1741 56.527 63.8285 56.527 64.6358ZM37.1396 74.893L34.1636 83.823C33.9083 84.5869 34.3215 85.4152 35.0874 85.6705C35.8533 85.9258 36.6816 85.5127 36.9369 84.7467L39.913 75.8168C40.1683 75.0508 39.7551 74.2225 38.9892 73.9672C38.2232 73.7139 37.3949 74.127 37.1396 74.893ZM42.7663 79.8199L40.8232 77.8768C40.2541 77.3057 40.2541 76.38 40.8232 75.809C41.3943 75.2399 42.32 75.2399 42.891 75.809L45.867 78.7869C46.4381 79.356 46.4381 80.2817 45.867 80.8528L42.891 83.8307C42.32 84.3998 41.3943 84.3998 40.8232 83.8307C40.2541 83.2597 40.2541 82.334 40.8232 81.7629L42.7663 79.8199ZM31.1857 75.809L28.2097 78.7869C27.6387 79.356 27.6387 80.2817 28.2097 80.8528L31.1857 83.8307C31.7568 84.3998 32.6825 84.3998 33.2535 83.8307C33.8226 83.2597 33.8226 82.334 33.2535 81.7629L31.3104 79.8199L33.2535 77.8768C33.8226 77.3057 33.8226 76.38 33.2535 75.809C32.6825 75.2399 31.7568 75.2399 31.1857 75.809ZM60.0235 87.6662C60.3826 88.2406 60.6522 88.8767 60.8126 89.5547H62.3745C63.1814 89.5547 63.8362 90.2095 63.8362 91.0164C63.8362 91.8213 63.1814 92.4781 62.3745 92.4781H60.8125C60.66 93.1219 60.4091 93.7279 60.0766 94.2794L61.1733 95.3762C61.7444 95.9472 61.7444 96.8729 61.1733 97.444C60.6023 98.013 59.6766 98.013 59.1055 97.444L58.0323 96.3697C57.4491 96.7395 56.8015 97.0167 56.1104 97.1804V98.742C56.1104 99.5488 55.4536 100.204 54.6487 100.204C53.8419 100.204 53.187 99.5488 53.187 98.742V97.1806C52.5089 97.0202 51.8728 96.7506 51.2983 96.3915L50.1483 97.5414C49.5773 98.1125 48.6515 98.1125 48.0805 97.5414C47.5114 96.9704 47.5114 96.0446 48.0805 95.4736L49.241 94.3142C48.8981 93.7535 48.6399 93.1355 48.4843 92.4781H46.7827C45.9758 92.4781 45.321 91.8213 45.321 91.0164C45.321 90.2095 45.9758 89.5547 46.7827 89.5547H48.4842C48.6477 88.8631 48.9248 88.2152 49.2946 87.6318L48.0805 86.4189C47.5114 85.8478 47.5114 84.9221 48.0805 84.3511C48.6515 83.78 49.5773 83.78 50.1483 84.3511L51.3849 85.5877C51.9365 85.2552 52.5428 85.0044 53.187 84.852V83.1505C53.187 82.3437 53.8419 81.6889 54.6487 81.6889C55.4536 81.6889 56.1104 82.3437 56.1104 83.1505V84.8523C56.7677 85.0079 57.3856 85.2661 57.9462 85.609L59.1055 84.4485C59.6766 83.8795 60.6023 83.8795 61.1733 84.4485C61.7444 85.0196 61.7444 85.9453 61.1733 86.5163L60.0235 87.6662ZM57.2551 93.2137C57.1968 93.2566 57.1411 93.3044 57.0884 93.3571C57.0253 93.4202 56.9691 93.4877 56.9199 93.5585C56.3164 94.0984 55.5201 94.427 54.6484 94.427C52.7658 94.427 51.2378 92.8971 51.2378 91.0164C51.2378 89.1337 52.7658 87.6058 54.6484 87.6058C56.5292 87.6058 58.0591 89.1337 58.0591 91.0164C58.0591 91.8528 57.7565 92.6198 57.2551 93.2137Z" fill="#6E00BE" fill-opacity="0.2"/>
</g>
<rect x="6.22305" y="40.3656" width="73.7578" height="79.4935" rx="9.27419" stroke="#F4F4F5" stroke-width="0.806452"/>
</g>
<g filter="url(#filter1_dd_6924_1929)">
<g clip-path="url(#clip1_6924_1929)">
<rect x="155.616" y="39.4409" width="74.5642" height="80.2999" rx="9.67742" fill="url(#paint1_linear_6924_1929)"/>
<rect x="130.584" y="16.6343" width="124.194" height="124.194" rx="62.0968" fill="#6E00BE" fill-opacity="0.02"/>
<rect x="149.939" y="35.9893" width="85.4839" height="85.4839" rx="42.7419" fill="#6E00BE" fill-opacity="0.02"/>
<path d="M210.099 57.5508H180.392C178.319 57.5508 176.632 59.2374 176.632 61.3106V68.9621C176.632 69.4494 177.027 69.8446 177.515 69.8446C178.003 69.8446 178.397 69.4494 178.397 68.9621V61.3106C178.397 60.2109 179.292 59.3158 180.392 59.3158H210.099C211.199 59.3158 212.093 60.2109 212.093 61.3106V95.3945C212.093 96.8325 211.002 98.0645 209.659 98.1412C208.238 98.2251 206.925 97.0786 206.925 95.5548V92.5702C206.925 92.0829 206.53 91.6877 206.042 91.6877H206.04H178.397V90.5492C178.397 90.0618 178.003 89.6667 177.515 89.6667C177.027 89.6667 176.632 90.0618 176.632 90.5492V91.6877H174.243C173.756 91.6877 173.361 92.0829 173.361 92.5702V95.5548C173.361 97.9784 175.34 99.9123 177.718 99.9123H209.505C209.508 99.9123 209.511 99.9105 209.514 99.9104C211.985 99.8991 213.858 97.832 213.858 95.3945V61.3106C213.858 59.2374 212.172 57.5508 210.099 57.5508ZM177.718 98.1473C176.307 98.1473 175.126 96.996 175.126 95.5548V93.4528H205.157V95.5535C205.157 96.4659 205.523 97.4834 206.017 98.1473H177.718Z" fill="#6E00BE" fill-opacity="0.2"/>
<path d="M208.563 87.2749H187.099C186.612 87.2749 186.217 87.6701 186.217 88.1574C186.217 88.6448 186.612 89.04 187.099 89.04H208.563C209.051 89.04 209.445 88.6448 209.445 88.1574C209.445 87.6701 209.051 87.2749 208.563 87.2749Z" fill="#6E00BE" fill-opacity="0.2"/>
<path d="M208.563 82.7036H190.294C189.807 82.7036 189.412 83.0988 189.412 83.5861C189.412 84.0735 189.807 84.4687 190.294 84.4687H208.563C209.051 84.4687 209.446 84.0735 209.446 83.5861C209.446 83.0988 209.051 82.7036 208.563 82.7036Z" fill="#6E00BE" fill-opacity="0.2"/>
<path d="M208.563 78.1406H190.957C190.469 78.1406 190.074 78.5358 190.074 79.0232C190.074 79.5105 190.469 79.9057 190.957 79.9057H208.563C209.051 79.9057 209.446 79.5105 209.446 79.0232C209.446 78.5358 209.051 78.1406 208.563 78.1406Z" fill="#6E00BE" fill-opacity="0.2"/>
<path d="M171.505 79.7568C171.505 84.3589 175.275 88.1654 179.914 88.1654C184.519 88.1654 188.333 84.4008 188.333 79.7568C188.333 79.7554 188.333 79.754 188.333 79.7526C188.333 79.7523 188.333 79.752 188.333 79.7516C188.333 79.751 188.333 79.7505 188.333 79.7499C188.329 75.1107 184.554 71.3374 179.914 71.3374C175.259 71.3374 171.505 75.1576 171.505 79.7568ZM179.031 73.1682V78.1527L174.815 75.4978C175.856 74.2497 177.345 73.3939 179.031 73.1682ZM173.878 76.9937L178.466 79.883L174.469 83.5527C173.716 82.4755 173.27 81.1681 173.27 79.7568C173.27 78.7703 173.492 77.8365 173.878 76.9937ZM175.661 84.8549L179.781 81.0716L183.071 85.6028C182.131 86.111 181.056 86.4003 179.914 86.4003C178.297 86.4003 176.814 85.8185 175.661 84.8549ZM184.497 84.5611L181.645 80.6342H186.503C186.298 82.1708 185.569 83.5413 184.497 84.5611ZM186.502 78.8691H180.796V73.168C183.757 73.5631 186.104 75.9085 186.502 78.8691Z" fill="#6E00BE" fill-opacity="0.2"/>
<path d="M183.667 61.9634C182.221 61.9634 181.045 63.1394 181.045 64.5847C181.045 66.0347 182.221 67.2146 183.667 67.2146C184.238 67.2146 184.763 67.0265 185.195 66.7157L188.858 69.2373C188.801 69.4506 188.762 69.6703 188.762 69.901C188.762 71.3511 189.937 72.5309 191.383 72.5309C192.833 72.5309 194.013 71.3511 194.013 69.901C194.013 69.7887 193.994 69.6817 193.98 69.5731L197.31 67.8734C197.779 68.3159 198.406 68.5923 199.099 68.5923C199.563 68.5923 199.993 68.4612 200.372 68.2495L204.38 71.7514C204.264 72.048 204.194 72.3684 204.194 72.7059C204.194 74.1564 205.371 75.3362 206.816 75.3362C208.266 75.3362 209.445 74.1564 209.445 72.7059C209.445 71.2606 208.266 70.085 206.816 70.085C206.353 70.085 205.925 70.2157 205.547 70.4267L201.54 66.9266C201.659 66.6272 201.729 66.3032 201.729 65.9619C201.729 64.5166 200.549 63.341 199.099 63.341C197.654 63.341 196.478 64.5166 196.478 65.9619C196.478 66.0772 196.498 66.1872 196.512 66.2986L193.181 67.9986C192.71 67.556 192.08 67.2797 191.383 67.2797C190.811 67.2797 190.286 67.4687 189.855 67.7805L186.197 65.2617C186.255 65.0444 186.296 64.8202 186.296 64.5847C186.296 63.1394 185.116 61.9634 183.667 61.9634ZM182.81 64.5847C182.81 64.1124 183.194 63.7284 183.667 63.7284C184.151 63.7284 184.531 64.1046 184.531 64.5847C184.531 65.0695 184.151 65.4496 183.667 65.4496C183.187 65.4496 182.81 65.0695 182.81 64.5847ZM207.68 72.7059C207.68 73.1911 207.3 73.5712 206.816 73.5712C206.336 73.5712 205.959 73.1911 205.959 72.7059C205.959 72.234 206.344 71.8501 206.816 71.8501C207.3 71.8501 207.68 72.2258 207.68 72.7059ZM199.099 65.1061C199.584 65.1061 199.964 65.4819 199.964 65.9619C199.964 66.4471 199.584 66.8272 199.099 66.8272C198.619 66.8272 198.243 66.4471 198.243 65.9619C198.243 65.4901 198.627 65.1061 199.099 65.1061ZM192.248 69.901C192.248 70.3858 191.868 70.7659 191.383 70.7659C190.903 70.7659 190.527 70.3858 190.527 69.901C190.527 69.4287 190.91 69.0447 191.383 69.0447C191.868 69.0447 192.248 69.4209 192.248 69.901Z" fill="#6E00BE" fill-opacity="0.2"/>
</g>
<rect x="156.019" y="39.8441" width="73.7578" height="79.4935" rx="9.27419" stroke="#F4F4F5" stroke-width="0.806452"/>
</g>
<g opacity="0.4">
<path d="M86.7558 107.423C86.7558 107.31 86.7302 107.21 86.6919 107.123C86.628 106.95 86.5066 106.803 86.3021 106.723C85.5163 106.423 84.6346 106.569 83.8423 106.79C83.6251 106.85 83.4973 106.996 83.4334 107.163C83.3887 107.25 83.3632 107.35 83.3632 107.477C83.4079 111.974 83.6187 116.431 83.8296 120.915C83.8551 121.422 84.3088 121.629 84.6729 121.536C84.9924 121.589 85.299 121.602 85.6185 121.576C85.7782 121.596 85.938 121.556 86.0593 121.449C86.0785 121.436 86.0913 121.409 86.1041 121.395C86.1296 121.369 86.1552 121.342 86.1743 121.309C86.2702 121.162 86.5769 116.471 86.6024 114.436C86.628 112.087 86.7494 109.759 86.7558 107.423Z" fill="#E119A0"/>
<path d="M78.693 112.295C78.5844 112.295 78.4886 112.321 78.4055 112.361C78.2394 112.428 78.0989 112.555 78.0222 112.768C77.7347 113.589 77.8752 114.51 78.0861 115.337C78.1436 115.564 78.2841 115.698 78.4439 115.764C78.5269 115.811 78.6228 115.838 78.7442 115.838C83.0504 115.791 87.3182 115.351 91.6117 115.351C92.3017 115.351 92.2059 114.47 92.2059 114.47L92.2442 112.868C92.2442 112.868 92.225 112.535 92.1228 112.408C92.11 112.388 92.0845 112.375 92.0717 112.361C92.0461 112.335 92.0206 112.308 91.9886 112.288C91.8481 112.188 87.3566 112.481 85.4079 112.455C83.1654 112.435 80.9292 112.308 78.693 112.295Z" fill="#E119A0"/>
<path d="M93.1258 142.481C93.2344 142.481 93.3303 142.454 93.4133 142.414C93.5794 142.347 93.72 142.22 93.7967 142.007C94.0842 141.186 93.9436 140.265 93.7328 139.438C93.6753 139.211 93.5347 139.078 93.375 139.011C93.2919 138.964 93.1961 138.938 93.0747 138.938C88.7685 138.984 84.4942 139.204 80.2072 139.425C79.7216 139.451 79.5236 139.925 79.613 140.305C79.5619 140.639 79.5491 140.959 79.5747 141.293C79.5555 141.46 79.5938 141.626 79.6961 141.753C79.7088 141.773 79.7344 141.787 79.7472 141.8C79.7727 141.827 79.7983 141.853 79.8302 141.867C79.9708 141.967 84.4623 142.287 86.411 142.314C88.6535 142.347 90.8897 142.467 93.1258 142.481Z" fill="#E119A0"/>
<path d="M88.4554 134.06C88.4554 133.946 88.4299 133.846 88.3915 133.759C88.3277 133.586 88.2063 133.439 88.0018 133.359C87.216 133.059 86.3343 133.206 85.542 133.426C85.3248 133.486 85.197 133.633 85.1332 133.799C85.0884 133.886 85.0629 133.986 85.0629 134.113C85.1076 138.61 85.5293 143.067 85.5293 147.551C85.5293 148.272 86.3726 148.172 86.3726 148.172L87.906 148.212C87.906 148.212 88.2254 148.192 88.3468 148.085C88.366 148.072 88.3788 148.045 88.3915 148.032C88.4171 148.005 88.4427 147.978 88.4554 147.945C88.5513 147.798 88.2702 143.107 88.2957 141.072C88.3277 138.73 88.4427 136.395 88.4554 134.06Z" fill="#E119A0"/>
<path d="M66.7708 135.835C66.7708 135.721 66.7452 135.621 66.7069 135.534C66.643 135.361 66.5216 135.214 66.3171 135.134C65.5313 134.834 64.6496 134.981 63.8574 135.201C63.6401 135.261 63.5124 135.408 63.4485 135.574C63.4037 135.661 63.3782 135.761 63.3782 135.888C63.4229 140.385 63.6337 144.842 63.8446 149.326C63.8701 149.833 64.3238 150.04 64.6879 149.947C65.0074 150 65.3141 150.013 65.6335 149.987C65.7932 150.007 65.953 149.967 66.0743 149.86C66.0935 149.847 66.1063 149.82 66.1191 149.807C66.1446 149.78 66.1702 149.753 66.183 149.72C66.2788 149.573 66.5855 144.882 66.611 142.847C66.643 140.499 66.7644 138.17 66.7708 135.835Z" fill="#E119A0"/>
<path d="M58.708 140.705C58.5994 140.705 58.5036 140.732 58.4205 140.772C58.2544 140.839 58.1139 140.966 58.0372 141.179C57.7497 142 57.8903 142.921 58.1011 143.748C58.1586 143.975 58.2992 144.108 58.4589 144.175C58.5419 144.222 58.6378 144.249 58.7592 144.249C63.0654 144.202 67.3333 143.761 71.6267 143.761C72.3167 143.761 72.2209 142.881 72.2209 142.881L72.2592 141.279C72.2592 141.279 72.24 140.946 72.1378 140.819C72.125 140.799 72.0995 140.786 72.0867 140.772C72.0611 140.745 72.0356 140.719 72.0036 140.705C71.8631 140.605 67.3716 140.899 65.4229 140.872C63.1804 140.846 60.9442 140.719 58.708 140.705Z" fill="#E119A0"/>
<path d="M98.9143 120.295C98.9143 120.181 98.8888 120.081 98.8504 119.994C98.7865 119.821 98.6651 119.674 98.4607 119.594C97.6748 119.294 96.7931 119.441 96.0009 119.661C95.7837 119.721 95.6559 119.861 95.592 120.034C95.5473 120.121 95.5217 120.221 95.5217 120.348C95.5665 124.845 95.7773 129.302 95.9881 133.786C96.0137 134.293 96.4673 134.5 96.8315 134.407C97.1509 134.46 97.4576 134.473 97.777 134.447C97.9368 134.467 98.0965 134.427 98.2179 134.32C98.2371 134.307 98.2498 134.28 98.2626 134.267C98.2882 134.24 98.3137 134.213 98.3265 134.18C98.4223 134.033 98.729 129.342 98.7546 127.307C98.7865 124.959 98.9015 122.63 98.9143 120.295Z" fill="#E119A0"/>
<path d="M103.572 128.695C103.68 128.695 103.776 128.668 103.859 128.628C104.026 128.561 104.166 128.435 104.243 128.221C104.53 127.4 104.39 126.48 104.179 125.652C104.121 125.425 103.981 125.292 103.821 125.225C103.738 125.179 103.642 125.152 103.521 125.152C99.2146 125.199 94.9467 125.639 90.6533 125.639C89.9632 125.639 90.0591 126.52 90.0591 126.52L90.0208 128.121C90.0208 128.121 90.0399 128.455 90.1421 128.581C90.1549 128.601 90.1805 128.615 90.1932 128.628C90.2188 128.655 90.2444 128.682 90.2763 128.695C90.4169 128.795 94.9084 128.501 96.857 128.528C99.0996 128.561 101.336 128.682 103.572 128.695Z" fill="#E119A0"/>
<path d="M71.8884 132.965C71.8884 133.079 71.914 133.179 71.9523 133.266C72.0162 133.439 72.1376 133.586 72.342 133.666C73.1279 133.966 74.0096 133.819 74.8018 133.599C75.019 133.539 75.1468 133.392 75.2107 133.226C75.2554 133.139 75.281 133.039 75.281 132.912C75.2363 128.415 75.0254 123.951 74.8146 119.474C74.789 118.967 74.3354 118.76 73.9713 118.853C73.6518 118.8 73.3451 118.786 73.0257 118.813C72.8659 118.793 72.7062 118.833 72.5848 118.94C72.5657 118.953 72.5529 118.98 72.5401 118.993C72.5145 119.02 72.489 119.047 72.4762 119.08C72.3804 119.227 72.0737 123.918 72.0482 125.953C72.0162 128.301 71.9012 130.63 71.8884 132.965Z" fill="#E119A0"/>
<path d="M79.7666 128.642C79.8752 128.655 79.971 128.635 80.0605 128.602C80.2266 128.548 80.3799 128.435 80.4758 128.228C80.8335 127.434 80.7696 126.506 80.6291 125.666C80.5907 125.432 80.463 125.285 80.3096 125.205C80.2266 125.152 80.1371 125.112 80.0157 125.105C75.7223 124.765 71.4353 124.812 67.1546 124.418C66.4646 124.358 66.4838 125.239 66.4838 125.239L66.3113 126.827C66.3113 126.827 66.3049 127.16 66.3943 127.294C66.4071 127.314 66.4263 127.327 66.4454 127.347C66.471 127.374 66.4902 127.401 66.5221 127.427C66.6499 127.541 71.1541 127.654 73.0964 127.861C75.3262 128.101 77.5432 128.428 79.7666 128.642Z" fill="#E119A0"/>
<path d="M50.1917 135.294C50.1917 135.407 50.2172 135.507 50.2555 135.594C50.3194 135.768 50.4408 135.914 50.6453 135.995C51.4311 136.295 52.3128 136.148 53.1051 135.928C53.3223 135.868 53.45 135.721 53.5139 135.554C53.5587 135.467 53.5842 135.367 53.5842 135.241C53.5395 130.743 53.3287 126.286 53.1178 121.802C53.0923 121.295 52.6386 121.088 52.2745 121.182C51.955 121.128 51.6484 121.115 51.3289 121.142C51.1692 121.122 51.0094 121.162 50.8881 121.269C50.8689 121.282 50.8561 121.309 50.8433 121.322C50.8178 121.349 50.7922 121.375 50.7794 121.409C50.6836 121.555 50.3769 126.246 50.3514 128.281C50.3194 130.623 50.2044 132.959 50.1917 135.294Z" fill="#E119A0"/>
<path d="M58.0692 130.97C58.1778 130.984 58.2736 130.964 58.3631 130.93C58.5292 130.877 58.6826 130.763 58.7784 130.557C59.1362 129.763 59.0723 128.835 58.9317 127.994C58.8934 127.761 58.7656 127.614 58.6123 127.534C58.5292 127.481 58.4398 127.441 58.3184 127.434C54.0249 127.094 49.7379 127.14 45.4572 126.747C44.7672 126.687 44.7864 127.567 44.7864 127.567L44.6139 129.155C44.6139 129.155 44.6075 129.489 44.6969 129.622C44.7097 129.642 44.7289 129.656 44.748 129.676C44.7736 129.702 44.7928 129.729 44.8247 129.756C44.9525 129.869 49.4568 129.983 51.399 130.19C53.6288 130.43 55.8458 130.757 58.0692 130.97Z" fill="#E119A0"/>
<path d="M67.2246 113.989C67.3332 113.989 67.429 113.962 67.5121 113.922C67.6782 113.856 67.8188 113.729 67.8954 113.515C68.1829 112.695 68.0424 111.774 67.8315 110.953C67.774 110.726 67.6335 110.593 67.4738 110.526C67.3907 110.479 67.2949 110.453 67.1735 110.453C62.8673 110.499 58.5994 110.72 54.306 110.94C53.8204 110.966 53.6223 111.44 53.7118 111.82C53.6606 112.154 53.6479 112.474 53.6734 112.808C53.6543 112.975 53.6926 113.142 53.7948 113.268C53.8076 113.288 53.8332 113.302 53.8459 113.315C53.8715 113.342 53.897 113.368 53.929 113.382C54.0695 113.482 58.561 113.802 60.5097 113.829C62.7586 113.856 64.9884 113.976 67.2246 113.989Z" fill="#E119A0"/>
<path d="M63.0843 105.762C63.0971 105.649 63.0779 105.549 63.046 105.455C62.9949 105.282 62.8863 105.122 62.6882 105.021C61.9279 104.648 61.0398 104.715 60.2348 104.861C60.0112 104.901 59.8706 105.035 59.794 105.195C59.7429 105.282 59.7045 105.375 59.6981 105.502C59.3723 109.986 59.417 114.463 59.04 118.933C58.9825 119.654 59.8259 119.634 59.8259 119.634L61.3465 119.814C61.3465 119.814 61.666 119.821 61.7937 119.727C61.8129 119.714 61.8257 119.694 61.8449 119.674C61.8704 119.647 61.896 119.627 61.9215 119.594C62.0301 119.461 62.1387 114.757 62.3368 112.728C62.5668 110.399 62.8799 108.084 63.0843 105.762Z" fill="#E119A0"/>
</g>
<g filter="url(#filter2_dd_6924_1929)">
<g clip-path="url(#clip2_6924_1929)">
<rect x="71.1235" y="30.3887" width="92.4596" height="99.5719" rx="12" fill="url(#paint2_linear_6924_1929)"/>
<rect x="61.1235" y="23.3887" width="112" height="112" rx="56" fill="white" fill-opacity="0.05"/>
<rect x="77.1235" y="39.3887" width="80" height="80" rx="40" fill="white" fill-opacity="0.05"/>
<g clip-path="url(#clip3_6924_1929)">
<path d="M136.561 65.891L121.523 56.5237C119.094 55.0106 115.154 55.01 112.724 56.5237L97.6859 65.891C95.257 67.4041 95.2558 69.8589 97.6859 71.3726L112.724 80.7399C115.152 82.253 119.093 82.2536 121.523 80.7399L136.561 71.3726C138.99 69.8596 138.991 67.4047 136.561 65.891ZM119.392 76.3296C118.153 77.1159 116.139 77.1126 114.906 76.3296L102.791 68.6416L114.906 60.9771C116.145 60.1932 118.159 60.1965 119.392 60.9771L131.507 68.6416L119.392 76.3296Z" fill="white" fill-opacity="0.5"/>
<path d="M136.561 76.8106L136.247 76.6151L120.446 86.5853L120.44 86.5844L119.392 87.2492C118.153 88.0354 116.139 88.0322 114.906 87.2492L102.791 79.5612L102.794 79.5594L98.0595 76.5776L97.6858 76.8104C95.2568 78.3235 95.2557 80.7784 97.6858 82.2921L112.723 91.6594C115.152 93.1724 119.093 93.173 121.523 91.6594L136.561 82.2921C138.99 80.7791 138.991 78.3242 136.561 76.8106Z" fill="white" fill-opacity="0.5"/>
<path d="M136.561 87.4047L136.247 87.2092L120.446 97.1794L120.44 97.1786L119.392 97.8433C118.153 98.6295 116.139 98.6263 114.906 97.8433L102.791 90.1553L102.794 90.1536L98.0596 87.1719L97.6859 87.4047C95.257 88.9177 95.2558 91.3726 97.6859 92.8863L112.724 102.254C115.152 103.767 119.093 103.767 121.523 102.254L136.561 92.8863C138.99 91.3732 138.991 88.9183 136.561 87.4047Z" fill="white" fill-opacity="0.5"/>
</g>
</g>
<rect x="71.6235" y="30.8887" width="91.4596" height="98.5719" rx="11.5" stroke="#6E00BE"/>
</g>
<g opacity="0.4">
<path d="M65.4309 38.6883C65.6174 38.6985 65.7992 38.6274 65.9416 38.497C66.391 38.0866 66.0889 37.2514 65.4947 37.2427C61.8535 36.6038 58.1881 36.0945 54.5565 35.4395C53.7087 35.3542 50.657 34.4639 49.0505 34.5194C48.0463 34.9804 48.5115 36.2577 49.5219 36.304C54.1934 37.2594 58.9376 37.6474 63.6343 38.4181C64.2178 38.4981 64.8292 38.5851 65.4309 38.6883Z" fill="#E119A0"/>
<path d="M64.7717 27.789C61.9166 25.3387 58.8122 23.2508 55.7078 21.1628C54.4365 20.409 53.3541 19.1973 51.9856 18.6593C50.5042 18.506 50.1488 20.2415 51.3055 21.1329C54.7982 24.4478 59.1784 26.5321 62.8078 29.6905C64.3127 31.4472 66.5028 29.2576 64.7717 27.789Z" fill="#E119A0"/>
<path d="M71.8071 22.6767C70.3896 19.8814 68.8682 17.1523 67.419 14.3921C66.5236 12.6542 65.7446 10.8471 64.701 9.21349C64.2605 8.28779 62.8577 8.43192 62.5905 9.43119C62.4545 9.89013 62.6243 10.3032 62.8316 10.7073C63.155 11.3998 63.488 12.0762 63.8114 12.7687C65.8605 16.5814 67.8644 20.4874 70.0935 24.1606C70.9897 25.0044 72.4281 23.7654 71.8071 22.6767Z" fill="#E119A0"/>
</g>
<path opacity="0.4" d="M180.973 29.0199C180.785 30.7604 180.443 32.2803 179.712 33.9258C179.384 34.6161 178.951 35.2445 178.534 35.8763C178.46 36.1232 178.833 36.3191 178.973 36.0925C181.711 32.5276 182.556 25.5582 180.429 21.365C180.044 20.7038 179.542 20.1242 178.979 19.6299C178.923 19.5255 178.238 18.9775 177.693 18.8413C177.538 18.7923 176.887 18.6354 177.024 18.7107C176.822 18.6564 176.603 18.6398 176.388 18.6464C176.014 15.4598 174.774 12.3655 172.533 10.0502C170.884 8.31362 167.502 7.07488 164.403 8.52715C163.615 8.86248 162.889 9.40779 162.243 10.0956C160.9 9.4451 159.377 9.06212 157.865 8.99097C156.409 8.88233 154.998 9.47674 153.722 10.1052C151.635 11.2024 150.2 12.8936 149.295 15.0838C149.12 15.5872 148.83 16.0831 148.766 16.6121C148.754 16.998 149.193 17.2852 149.525 17.1261C149.817 16.9964 149.868 16.6405 150.02 16.3827C150.36 15.6612 150.674 14.89 150.876 14.5897C152.58 11.312 156.381 9.27635 159.802 10.3323C160.45 10.5072 161.022 10.7047 161.542 10.9331C160.406 12.4699 159.584 14.471 159.236 16.5237C159.183 16.8268 159.135 17.1349 159.081 17.438C159.071 17.4808 159.059 17.512 159.049 17.5548C158.962 18.0754 158.923 18.6129 158.935 19.1491C158.831 20.7005 159.879 24.1942 161.773 24.1231C164.329 24.1776 166.266 20.5835 166.565 17.8343C167.076 14.5293 165.505 12.0724 163.142 10.5958C164.763 8.96708 167.571 8.04042 170.269 9.44043C172.702 10.718 174.463 14.0819 175.157 17.1704C175.255 17.7122 175.333 18.2687 175.39 18.8399C174.214 19.2712 173.401 20.3371 172.554 21.2246C171.955 21.9177 171.357 22.6223 170.893 23.4204C170.829 23.5123 170.777 23.6142 170.725 23.716C170.347 24.4488 169.722 26.3277 169.476 27.5976L169.481 27.5911C169.378 27.9779 169.4 28.4004 169.423 28.7932C169.764 31.8426 171.664 32.4561 173.629 30.1703C175.228 28.261 175.972 25.7033 176.354 23.2204C176.524 21.9433 176.557 20.6206 176.45 19.3117C176.567 19.301 176.687 19.302 176.813 19.3079C176.842 19.3098 176.864 19.3066 176.892 19.3085C176.905 19.3185 176.952 19.3238 177.082 19.3232C177.332 19.3532 177.527 19.4025 177.762 19.4819C178.74 19.9118 179.419 20.7385 180.023 21.7412C181.111 24.0294 181.212 26.4682 180.973 29.0199ZM165.058 14.2513C166.211 16.761 165.401 20.1907 163.567 22.1213C161.841 23.6288 161.17 23.132 160.391 20.9304C159.732 18.5878 160.294 14.3594 162.461 11.4186C163.637 12.1222 164.456 13.0474 165.058 14.2513ZM172.614 29.651C172.228 30.0835 171.271 30.6022 171.096 30.3254C170.914 30.1854 170.562 29.3365 170.511 28.3447C170.514 28.2556 170.527 27.84 170.563 27.7463C170.566 27.7282 170.562 27.7051 170.565 27.6869C170.581 27.6788 170.6 27.6229 170.608 27.4976C170.715 26.921 170.686 27.061 170.827 26.5211C171.078 25.6702 171.339 24.8178 171.662 23.9922C171.831 23.6669 172.014 23.3516 172.216 23.0513C173.241 21.6423 174.045 20.3767 175.461 19.5629C175.646 23.2017 174.83 27.123 172.614 29.651Z" fill="#E119A0"/>
<path d="M157.833 122.652L135.333 112.652L132.333 113.652L142.333 137.652L146.833 126.652L157.833 122.652Z" fill="white"/>
<path fill-rule="evenodd" clip-rule="evenodd" d="M134.363 110.398C134.363 110.398 134.363 110.398 134.363 110.398L158.972 119.626C159.537 119.84 160.023 120.222 160.364 120.72C160.706 121.218 160.887 121.809 160.883 122.413C160.879 123.017 160.69 123.606 160.342 124.099C159.993 124.593 159.502 124.968 158.935 125.175L148.957 128.802L145.33 138.779C145.124 139.347 144.748 139.838 144.255 140.186C143.761 140.535 143.173 140.723 142.569 140.727C141.964 140.731 141.374 140.551 140.875 140.209C140.377 139.867 139.995 139.381 139.781 138.816L139.779 138.811L130.553 114.208C130.553 114.208 130.553 114.208 130.553 114.208C130.354 113.676 130.312 113.098 130.432 112.542C130.552 111.987 130.83 111.478 131.231 111.076C131.633 110.674 132.142 110.397 132.698 110.277C133.253 110.156 133.831 110.198 134.363 110.398ZM133.324 113.169L133.72 113.02C133.72 113.02 133.72 113.02 133.72 113.02L133.324 113.169ZM134.046 113.891L156.703 122.387L147.618 125.69L147.611 125.692C147.207 125.841 146.84 126.076 146.536 126.38C146.231 126.685 145.997 127.051 145.848 127.455L145.845 127.462L142.543 136.548L134.046 113.891Z" fill="#FFA000"/>
<path fill-rule="evenodd" clip-rule="evenodd" d="M146.542 126.384C147.202 125.724 148.273 125.724 148.933 126.384L160.252 137.703C160.912 138.364 160.912 139.434 160.252 140.095C159.592 140.755 158.521 140.755 157.861 140.095L146.542 128.776C145.881 128.115 145.881 127.045 146.542 126.384Z" fill="#FFA000"/>
<defs>
<filter id="filter0_dd_6924_1929" x="0.981115" y="38.3495" width="84.2416" height="89.9772" filterUnits="userSpaceOnUse" color-interpolation-filters="sRGB">
<feFlood flood-opacity="0" result="BackgroundImageFix"/>
<feColorMatrix in="SourceAlpha" type="matrix" values="0 0 0 0 0 0 0 0 0 0 0 0 0 0 0 0 0 0 127 0" result="hardAlpha"/>
<feMorphology radius="1.6129" operator="erode" in="SourceAlpha" result="effect1_dropShadow_6924_1929"/>
<feOffset dy="1.6129"/>
<feGaussianBlur stdDeviation="0.806452"/>
<feComposite in2="hardAlpha" operator="out"/>
<feColorMatrix type="matrix" values="0 0 0 0 0 0 0 0 0 0 0 0 0 0 0 0 0 0 0.15 0"/>
<feBlend mode="normal" in2="BackgroundImageFix" result="effect1_dropShadow_6924_1929"/>
<feColorMatrix in="SourceAlpha" type="matrix" values="0 0 0 0 0 0 0 0 0 0 0 0 0 0 0 0 0 0 127 0" result="hardAlpha"/>
<feMorphology radius="1.6129" operator="erode" in="SourceAlpha" result="effect2_dropShadow_6924_1929"/>
<feOffset dy="3.22581"/>
<feGaussianBlur stdDeviation="3.22581"/>
<feComposite in2="hardAlpha" operator="out"/>
<feColorMatrix type="matrix" values="0 0 0 0 0 0 0 0 0 0 0 0 0 0 0 0 0 0 0.08 0"/>
<feBlend mode="normal" in2="effect1_dropShadow_6924_1929" result="effect2_dropShadow_6924_1929"/>
<feBlend mode="normal" in="SourceGraphic" in2="effect2_dropShadow_6924_1929" result="shape"/>
</filter>
<filter id="filter1_dd_6924_1929" x="150.777" y="37.828" width="84.2416" height="89.9772" filterUnits="userSpaceOnUse" color-interpolation-filters="sRGB">
<feFlood flood-opacity="0" result="BackgroundImageFix"/>
<feColorMatrix in="SourceAlpha" type="matrix" values="0 0 0 0 0 0 0 0 0 0 0 0 0 0 0 0 0 0 127 0" result="hardAlpha"/>
<feMorphology radius="1.6129" operator="erode" in="SourceAlpha" result="effect1_dropShadow_6924_1929"/>
<feOffset dy="1.6129"/>
<feGaussianBlur stdDeviation="0.806452"/>
<feComposite in2="hardAlpha" operator="out"/>
<feColorMatrix type="matrix" values="0 0 0 0 0 0 0 0 0 0 0 0 0 0 0 0 0 0 0.15 0"/>
<feBlend mode="normal" in2="BackgroundImageFix" result="effect1_dropShadow_6924_1929"/>
<feColorMatrix in="SourceAlpha" type="matrix" values="0 0 0 0 0 0 0 0 0 0 0 0 0 0 0 0 0 0 127 0" result="hardAlpha"/>
<feMorphology radius="1.6129" operator="erode" in="SourceAlpha" result="effect2_dropShadow_6924_1929"/>
<feOffset dy="3.22581"/>
<feGaussianBlur stdDeviation="3.22581"/>
<feComposite in2="hardAlpha" operator="out"/>
<feColorMatrix type="matrix" values="0 0 0 0 0 0 0 0 0 0 0 0 0 0 0 0 0 0 0.08 0"/>
<feBlend mode="normal" in2="effect1_dropShadow_6924_1929" result="effect2_dropShadow_6924_1929"/>
<feBlend mode="normal" in="SourceGraphic" in2="effect2_dropShadow_6924_1929" result="shape"/>
</filter>
<filter id="filter2_dd_6924_1929" x="65.1235" y="28.3887" width="104.46" height="111.572" filterUnits="userSpaceOnUse" color-interpolation-filters="sRGB">
<feFlood flood-opacity="0" result="BackgroundImageFix"/>
<feColorMatrix in="SourceAlpha" type="matrix" values="0 0 0 0 0 0 0 0 0 0 0 0 0 0 0 0 0 0 127 0" result="hardAlpha"/>
<feMorphology radius="2" operator="erode" in="SourceAlpha" result="effect1_dropShadow_6924_1929"/>
<feOffset dy="2"/>
<feGaussianBlur stdDeviation="1"/>
<feComposite in2="hardAlpha" operator="out"/>
<feColorMatrix type="matrix" values="0 0 0 0 0 0 0 0 0 0 0 0 0 0 0 0 0 0 0.15 0"/>
<feBlend mode="normal" in2="BackgroundImageFix" result="effect1_dropShadow_6924_1929"/>
<feColorMatrix in="SourceAlpha" type="matrix" values="0 0 0 0 0 0 0 0 0 0 0 0 0 0 0 0 0 0 127 0" result="hardAlpha"/>
<feMorphology radius="2" operator="erode" in="SourceAlpha" result="effect2_dropShadow_6924_1929"/>
<feOffset dy="4"/>
<feGaussianBlur stdDeviation="4"/>
<feComposite in2="hardAlpha" operator="out"/>
<feColorMatrix type="matrix" values="0 0 0 0 0 0 0 0 0 0 0 0 0 0 0 0 0 0 0.08 0"/>
<feBlend mode="normal" in2="effect1_dropShadow_6924_1929" result="effect2_dropShadow_6924_1929"/>
<feBlend mode="normal" in="SourceGraphic" in2="effect2_dropShadow_6924_1929" result="shape"/>
</filter>
<linearGradient id="paint0_linear_6924_1929" x1="80.384" y1="39.9624" x2="-8.64602" y2="98.1158" gradientUnits="userSpaceOnUse">
<stop stop-color="#FAF2FF"/>
<stop offset="1" stop-color="white"/>
</linearGradient>
<linearGradient id="paint1_linear_6924_1929" x1="230.18" y1="39.4409" x2="141.15" y2="97.5943" gradientUnits="userSpaceOnUse">
<stop stop-color="#F2DFFF"/>
<stop offset="1" stop-color="white"/>
</linearGradient>
<linearGradient id="paint2_linear_6924_1929" x1="71.1235" y1="82.7609" x2="163.583" y2="82.7609" gradientUnits="userSpaceOnUse">
<stop stop-color="#6F01BF"/>
<stop offset="1" stop-color="#B863F5"/>
</linearGradient>
<clipPath id="clip0_6924_1929">
<rect x="5.81982" y="39.9624" width="74.5642" height="80.2999" rx="9.67742" fill="white"/>
</clipPath>
<clipPath id="clip1_6924_1929">
<rect x="155.616" y="39.4409" width="74.5642" height="80.2999" rx="9.67742" fill="white"/>
</clipPath>
<clipPath id="clip2_6924_1929">
<rect x="71.1235" y="30.3887" width="92.4596" height="99.5719" rx="12" fill="white"/>
</clipPath>
<clipPath id="clip3_6924_1929">
<rect width="48" height="48" fill="white" transform="translate(93.1235 55.3887)"/>
</clipPath>
</defs>
</svg>
