<svg width="56" height="56" viewBox="0 0 56 56" fill="none" xmlns="http://www.w3.org/2000/svg">
<rect width="56" height="56" rx="28" fill="#FFEFE5"/>
<path d="M27.8434 30.2722L24.3544 26.7831L25.6854 25.4521L27.8434 27.6101L31.635 23.8186C30.6319 22.9083 29.3013 22.3529 27.8434 22.3529C24.7296 22.3529 22.1964 24.8862 22.1964 28C22.1964 31.1138 24.7296 33.647 27.8434 33.647C30.9572 33.647 33.4905 31.1138 33.4905 28C33.4905 27.0262 33.2427 26.1091 32.8069 25.3086L27.8434 30.2722Z" fill="url(#paint0_linear_662_4910)"/>
<path d="M39.1372 17.6471C36.5424 17.6471 34.4314 15.536 34.4314 12.9412C34.4314 12.4214 34.01 12 33.4902 12H22.1961C21.6763 12 21.2549 12.4214 21.2549 12.9412C21.2549 15.536 19.1438 17.6471 16.549 17.6471C15.5094 17.6471 14.6667 18.4898 14.6667 19.5294V26.4928C14.6667 30.4289 15.9027 34.183 18.2412 37.3492C21.2115 41.3709 25.1697 43.089 26.9326 43.7071C27.5051 43.9078 28.1811 43.9075 28.7556 43.7126C30.5035 43.1194 34.4011 41.4706 37.4451 37.3492C39.7836 34.183 41.0196 30.4289 41.0196 26.4928V19.5294C41.0196 18.4898 40.1768 17.6471 39.1372 17.6471ZM35.009 23.1063C34.5246 23.5906 34.4583 24.3418 34.735 24.9684C35.1448 25.8964 35.3725 26.9221 35.3725 28C35.3725 32.1517 31.9948 35.5294 27.8431 35.5294C23.6913 35.5294 20.3137 32.1517 20.3137 28C20.3137 23.8483 23.6913 20.4706 27.8431 20.4706C29.3868 20.4706 30.8233 20.9378 32.0191 21.738C32.5797 22.1132 33.3437 22.1097 33.8207 21.6327L34.0416 21.4118C34.4091 21.0442 35.005 21.0442 35.3726 21.4118C35.7401 21.7793 35.7401 22.3753 35.3725 22.7428L35.009 23.1063Z" fill="url(#paint1_linear_662_4910)"/>
<defs>
<linearGradient id="paint0_linear_662_4910" x1="27.8434" y1="22.3529" x2="27.8434" y2="33.647" gradientUnits="userSpaceOnUse">
<stop stop-color="#FCA773"/>
<stop offset="0.494792" stop-color="#FC5F00"/>
<stop offset="1" stop-color="#EA6514"/>
</linearGradient>
<linearGradient id="paint1_linear_662_4910" x1="27.8431" y1="12" x2="27.8431" y2="44" gradientUnits="userSpaceOnUse">
<stop stop-color="#FCA773"/>
<stop offset="0.494792" stop-color="#FC5F00"/>
<stop offset="1" stop-color="#EA6514"/>
</linearGradient>
</defs>
</svg>
